<svg xmlns="http://www.w3.org/2000/svg" xmlns:xlink="http://www.w3.org/1999/xlink" zoomAndPan="magnify" preserveAspectRatio="xMidYMid meet" version="1.0" viewBox="34.49 81.68 287.64 168.86"><defs><g/></defs><g fill="#b479d9" fill-opacity="1"><g transform="translate(172.785344, 239.775731)"><g><path d="M 27.875 -10.375 L 27.875 -20.4375 C 23.175781 -20.113281 19.328125 -19.070312 16.328125 -17.3125 C 13.328125 -15.550781 11.828125 -13.660156 11.828125 -11.640625 C 11.828125 -9.617188 12.347656 -7.875 13.390625 -6.40625 C 14.441406 -4.9375 15.78125 -3.910156 17.40625 -3.328125 C 19.5625 -3.710938 21.84375 -4.785156 24.25 -6.546875 C 26.664062 -8.304688 27.875 -9.582031 27.875 -10.375 Z M 35.890625 -13.015625 C 35.890625 -8.378906 37.585938 -4.851562 40.984375 -2.4375 L 35.890625 1.265625 L 27.96875 -5.875 C 22.820312 -1.175781 18.0625 1.171875 13.6875 1.171875 C 10.820312 1.171875 8.363281 0.257812 6.3125 -1.5625 C 4.257812 -3.382812 3.234375 -5.679688 3.234375 -8.453125 C 3.234375 -11.234375 4.0625 -13.535156 5.71875 -15.359375 C 7.382812 -17.179688 9.585938 -18.582031 12.328125 -19.5625 C 17.015625 -21.320312 22.195312 -22.429688 27.875 -22.890625 L 27.875 -32.078125 C 27.875 -37.492188 24.742188 -40.203125 18.484375 -40.203125 C 14.898438 -40.203125 10.660156 -39.421875 5.765625 -37.859375 L 4.890625 -40.296875 C 6.191406 -41.335938 8.457031 -42.445312 11.6875 -43.625 C 14.914062 -44.800781 17.992188 -45.390625 20.921875 -45.390625 C 23.859375 -45.390625 26.320312 -44.992188 28.3125 -44.203125 C 30.300781 -43.421875 31.769531 -42.539062 32.71875 -41.5625 C 33.664062 -40.59375 34.398438 -39.257812 34.921875 -37.5625 C 35.441406 -35.863281 35.734375 -34.523438 35.796875 -33.546875 C 35.859375 -32.566406 35.890625 -31.265625 35.890625 -29.640625 Z M 35.890625 -13.015625 "/></g></g></g><g fill="#b479d9" fill-opacity="1"><g transform="translate(216.210589, 239.775731)"><g><path d="M 38.828125 -13.109375 C 38.828125 -8.609375 40.523438 -5.050781 43.921875 -2.4375 L 38.828125 1.171875 L 30.90625 -5.96875 C 28.226562 -3.425781 25.847656 -1.597656 23.765625 -0.484375 C 21.679688 0.617188 19.21875 1.171875 16.375 1.171875 C 13.539062 1.171875 10.929688 0.0820312 8.546875 -2.09375 C 6.171875 -4.28125 4.984375 -8.050781 4.984375 -13.40625 L 4.984375 -44.21875 L 13.296875 -44.21875 L 13.296875 -12.90625 C 13.296875 -9.78125 13.863281 -7.414062 15 -5.8125 C 16.144531 -4.21875 18.132812 -3.421875 20.96875 -3.421875 C 23.8125 -3.421875 26.992188 -5.507812 30.515625 -9.6875 L 30.515625 -44.21875 L 38.828125 -44.21875 Z M 38.828125 -13.109375 "/></g></g></g><g fill="#b479d9" fill-opacity="1"><g transform="translate(263.156802, 239.775731)"><g><path d="M 4.40625 0 L 4.40625 -2.9375 L 30.515625 -40.984375 L 6.453125 -40.109375 L 5.484375 -44.21875 L 39.421875 -44.21875 L 39.421875 -41.46875 L 13.40625 -3.515625 L 39.71875 -4.59375 L 40.6875 0 Z M 4.40625 0 "/></g></g></g><g fill="#b479d9" fill-opacity="1"><g transform="translate(306.582046, 239.775731)"><g><path d="M 15.546875 -66.8125 L 15.546875 0 L 7.328125 0 L 7.328125 -66.8125 Z M 15.546875 -66.8125 "/></g></g></g><g fill="#b479d9" fill-opacity="1"><g transform="translate(35.643111, 247.724984)"><g><path d="M 38.84375 -124.21875 C 38.59375 -124.21875 38.765625 -124.6875 39.359375 -125.625 C 39.523438 -126.050781 39.738281 -126.453125 40 -126.828125 C 40.257812 -127.210938 40.472656 -127.453125 40.640625 -127.546875 C 41.148438 -128.054688 41.234375 -127.96875 40.890625 -127.28125 C 40.640625 -126.6875 40.28125 -126.023438 39.8125 -125.296875 C 39.34375 -124.578125 39.019531 -124.21875 38.84375 -124.21875 Z M 53.03125 -90.734375 C 53.207031 -90.734375 53.207031 -90.519531 53.03125 -90.09375 C 53.03125 -89.582031 53.117188 -89.328125 53.296875 -89.328125 C 53.460938 -89.328125 53.546875 -89.203125 53.546875 -88.953125 C 53.546875 -88.691406 53.375 -88.644531 53.03125 -88.8125 C 52.695312 -88.8125 52.441406 -88.6875 52.265625 -88.4375 C 51.921875 -87.75 51.960938 -87.535156 52.390625 -87.796875 C 52.816406 -88.054688 52.835938 -87.757812 52.453125 -86.90625 C 52.078125 -86.050781 51.117188 -84.21875 49.578125 -81.40625 C 48.734375 -79.789062 47.90625 -78.210938 47.09375 -76.671875 C 46.28125 -75.140625 45.707031 -74.035156 45.375 -73.359375 C 44.6875 -71.734375 44.21875 -71.132812 43.96875 -71.5625 C 43.789062 -71.738281 43.703125 -71.828125 43.703125 -71.828125 C 43.703125 -71.828125 43.742188 -71.613281 43.828125 -71.1875 C 43.921875 -70.757812 43.878906 -70.457031 43.703125 -70.28125 C 43.535156 -70.113281 43.320312 -70.160156 43.0625 -70.421875 C 42.46875 -70.929688 42.8125 -72.421875 44.09375 -74.890625 C 44.769531 -76.585938 45.320312 -77.4375 45.75 -77.4375 C 45.914062 -77.53125 46.257812 -78.210938 46.78125 -79.484375 C 46.945312 -80.085938 47.242188 -80.769531 47.671875 -81.53125 C 48.097656 -82.300781 48.523438 -82.984375 48.953125 -83.578125 C 49.972656 -84.859375 50.484375 -85.710938 50.484375 -86.140625 C 50.484375 -86.390625 50.671875 -86.875 51.046875 -87.59375 C 51.429688 -88.320312 51.835938 -89.023438 52.265625 -89.703125 C 52.691406 -90.390625 52.945312 -90.734375 53.03125 -90.734375 Z M 84.734375 -86.78125 C 84.816406 -86.863281 84.941406 -87.070312 85.109375 -87.40625 C 85.109375 -88.09375 85.234375 -88.816406 85.484375 -89.578125 C 85.742188 -90.347656 85.960938 -90.734375 86.140625 -90.734375 C 86.390625 -90.734375 86.429688 -90.476562 86.265625 -89.96875 C 86.179688 -89.800781 86.070312 -89.4375 85.9375 -88.875 C 85.8125 -88.320312 85.664062 -87.832031 85.5 -87.40625 C 85.320312 -86.5625 85.101562 -85.96875 84.84375 -85.625 C 84.59375 -85.28125 84.46875 -85.40625 84.46875 -86 C 84.46875 -86.34375 84.554688 -86.601562 84.734375 -86.78125 Z M 81.53125 -69.265625 C 81.445312 -68.585938 81.273438 -68.117188 81.015625 -67.859375 C 80.765625 -67.609375 80.640625 -67.738281 80.640625 -68.25 C 80.640625 -68.5 80.765625 -69.21875 81.015625 -70.40625 C 81.273438 -71.601562 81.53125 -72.773438 81.78125 -73.921875 C 82.039062 -75.078125 82.210938 -75.695312 82.296875 -75.78125 C 82.804688 -76.125 82.847656 -75.53125 82.421875 -74 C 82.253906 -73.226562 82.128906 -72.585938 82.046875 -72.078125 C 81.960938 -71.566406 81.789062 -70.628906 81.53125 -69.265625 Z M 83.703125 -79.109375 C 83.535156 -78.597656 83.367188 -78.507812 83.203125 -78.84375 C 83.109375 -79.019531 83.210938 -79.765625 83.515625 -81.078125 C 83.816406 -82.398438 84.09375 -83.191406 84.34375 -83.453125 C 84.507812 -83.617188 84.488281 -83.0625 84.28125 -81.78125 C 84.070312 -80.507812 83.878906 -79.617188 83.703125 -79.109375 Z M 74.25 -35.65625 C 74.25 -35.820312 74.332031 -36.3125 74.5 -37.125 C 74.675781 -37.9375 74.847656 -38.851562 75.015625 -39.875 C 75.179688 -40.8125 75.367188 -41.640625 75.578125 -42.359375 C 75.796875 -43.085938 75.953125 -43.453125 76.046875 -43.453125 C 76.210938 -43.453125 76.296875 -43.238281 76.296875 -42.8125 C 76.296875 -42.382812 76.125 -41.316406 75.78125 -39.609375 C 75.351562 -37.484375 75.078125 -36.1875 74.953125 -35.71875 C 74.828125 -35.25 74.632812 -35.015625 74.375 -35.015625 C 74.125 -35.015625 74.082031 -35.226562 74.25 -35.65625 Z M 86.390625 -91.5 C 86.128906 -91.5 86 -91.585938 86 -91.765625 C 86 -92.097656 86.382812 -93.539062 87.15625 -96.09375 C 87.925781 -98.65625 88.78125 -101.425781 89.71875 -104.40625 C 90.3125 -106.28125 90.863281 -108.003906 91.375 -109.578125 C 91.882812 -111.160156 92.179688 -112.125 92.265625 -112.46875 C 92.441406 -113.226562 92.847656 -114.566406 93.484375 -116.484375 C 94.117188 -118.398438 94.796875 -120.421875 95.515625 -122.546875 C 96.242188 -124.679688 96.882812 -126.554688 97.4375 -128.171875 C 98 -129.796875 98.320312 -130.648438 98.40625 -130.734375 C 98.75 -131.328125 98.851562 -131.21875 98.71875 -130.40625 C 98.59375 -129.601562 98.273438 -128.4375 97.765625 -126.90625 C 97.421875 -126.132812 97.035156 -125.046875 96.609375 -123.640625 C 96.179688 -122.234375 95.800781 -120.976562 95.46875 -119.875 C 95.125 -118.769531 94.71875 -117.515625 94.25 -116.109375 C 93.78125 -114.703125 93.414062 -113.613281 93.15625 -112.84375 C 92.90625 -112.070312 92.609375 -111.15625 92.265625 -110.09375 C 91.929688 -109.03125 91.675781 -108.160156 91.5 -107.484375 C 90.394531 -103.734375 89.4375 -100.515625 88.625 -97.828125 C 87.8125 -95.140625 87.320312 -93.671875 87.15625 -93.421875 C 86.90625 -93.160156 86.78125 -92.734375 86.78125 -92.140625 C 86.78125 -91.710938 86.648438 -91.5 86.390625 -91.5 Z M 26.203125 -74.125 C 26.203125 -73.863281 25.945312 -73.476562 25.4375 -72.96875 C 24.925781 -72.457031 24.671875 -72.285156 24.671875 -72.453125 C 24.671875 -72.878906 24.773438 -73.304688 24.984375 -73.734375 C 25.191406 -74.160156 25.425781 -74.375 25.6875 -74.375 C 26.03125 -74.375 26.203125 -74.289062 26.203125 -74.125 Z M 77.703125 -53.03125 C 77.867188 -54.3125 78.082031 -54.953125 78.34375 -54.953125 C 78.507812 -54.953125 78.59375 -54.757812 78.59375 -54.375 C 78.59375 -53.988281 78.421875 -53.070312 78.078125 -51.625 C 77.828125 -50.4375 77.59375 -49.304688 77.375 -48.234375 C 77.164062 -47.171875 77.019531 -46.425781 76.9375 -46 C 76.851562 -45.582031 76.679688 -45.160156 76.421875 -44.734375 C 76.171875 -44.304688 76.046875 -44.21875 76.046875 -44.46875 C 76.046875 -44.894531 76.253906 -46.046875 76.671875 -47.921875 C 76.847656 -48.859375 77.039062 -49.835938 77.25 -50.859375 C 77.46875 -51.878906 77.617188 -52.601562 77.703125 -53.03125 Z M 1.015625 -1.28125 C 0.597656 -1.28125 0.128906 -1.789062 -0.390625 -2.8125 C -0.722656 -3.40625 -0.929688 -4.082031 -1.015625 -4.84375 C -1.109375 -5.613281 -1.15625 -6.894531 -1.15625 -8.6875 C -1.15625 -9.96875 -1.085938 -11.394531 -0.953125 -12.96875 C -0.828125 -14.539062 -0.65625 -15.96875 -0.4375 -17.25 C -0.226562 -18.53125 -0.0390625 -19.253906 0.125 -19.421875 C 0.632812 -19.765625 0.632812 -18.703125 0.125 -16.234375 C -0.0390625 -15.117188 -0.144531 -14.050781 -0.1875 -13.03125 C -0.226562 -12.007812 -0.207031 -10.691406 -0.125 -9.078125 L 0.25 -4.984375 L 0.25 -7.921875 C 0.34375 -9.710938 0.554688 -12.054688 0.890625 -14.953125 C 1.234375 -17.847656 1.660156 -20.742188 2.171875 -23.640625 C 2.679688 -26.535156 3.191406 -28.835938 3.703125 -30.546875 C 4.046875 -32.078125 4.34375 -33.351562 4.59375 -34.375 C 4.769531 -35.144531 5.175781 -36.675781 5.8125 -38.96875 C 6.445312 -41.269531 7.148438 -43.71875 7.921875 -46.3125 C 8.691406 -48.914062 9.332031 -51.070312 9.84375 -52.78125 C 10.519531 -55 11.625 -58.28125 13.15625 -62.625 C 14.695312 -66.96875 16.359375 -71.609375 18.140625 -76.546875 C 19.171875 -79.191406 20.515625 -82.492188 22.171875 -86.453125 C 23.835938 -90.410156 25.691406 -94.601562 27.734375 -99.03125 C 29.773438 -103.46875 31.773438 -107.734375 33.734375 -111.828125 C 34.078125 -112.421875 34.25 -112.890625 34.25 -113.234375 C 34.25 -113.316406 34.351562 -113.546875 34.5625 -113.921875 C 34.78125 -114.304688 35.015625 -114.753906 35.265625 -115.265625 C 35.523438 -115.867188 35.738281 -116.359375 35.90625 -116.734375 C 36.082031 -117.117188 36.171875 -117.3125 36.171875 -117.3125 C 36.171875 -117.40625 36.53125 -118.148438 37.25 -119.546875 C 37.976562 -120.953125 38.851562 -122.59375 39.875 -124.46875 C 40.894531 -126.34375 41.789062 -127.960938 42.5625 -129.328125 C 43.15625 -130.429688 43.640625 -131.347656 44.015625 -132.078125 C 44.398438 -132.804688 44.550781 -133.171875 44.46875 -133.171875 C 44.46875 -133.171875 44.359375 -133.039062 44.140625 -132.78125 C 43.929688 -132.519531 43.742188 -132.179688 43.578125 -131.765625 C 43.328125 -131.335938 43.09375 -131.015625 42.875 -130.796875 C 42.664062 -130.585938 42.5625 -130.523438 42.5625 -130.609375 C 42.46875 -130.773438 42.59375 -131.175781 42.9375 -131.8125 C 43.28125 -132.457031 43.664062 -133.164062 44.09375 -133.9375 C 44.519531 -134.78125 45.050781 -135.710938 45.6875 -136.734375 C 46.320312 -137.765625 46.8125 -138.578125 47.15625 -139.171875 C 47.582031 -139.847656 47.988281 -140.503906 48.375 -141.140625 C 48.757812 -141.785156 49.035156 -142.238281 49.203125 -142.5 C 49.796875 -143.175781 50.347656 -144.003906 50.859375 -144.984375 C 51.367188 -145.960938 51.625 -146.625 51.625 -146.96875 C 51.625 -147.21875 52.050781 -147.875 52.90625 -148.9375 C 53.757812 -150.007812 54.757812 -151.160156 55.90625 -152.390625 C 57.0625 -153.628906 58.066406 -154.632812 58.921875 -155.40625 C 59.847656 -156.25 60.523438 -156.753906 60.953125 -156.921875 C 61.378906 -157.097656 61.894531 -157.1875 62.5 -157.1875 C 63.601562 -157.019531 64.15625 -157.0625 64.15625 -157.3125 C 64.5 -157.488281 65.394531 -157.191406 66.84375 -156.421875 C 68.882812 -155.398438 69.988281 -154.421875 70.15625 -153.484375 C 70.332031 -152.546875 69.648438 -151.140625 68.109375 -149.265625 C 67.515625 -148.585938 66.851562 -147.757812 66.125 -146.78125 C 65.40625 -145.800781 64.832031 -144.96875 64.40625 -144.28125 C 63.976562 -143.601562 63.378906 -142.726562 62.609375 -141.65625 C 61.847656 -140.59375 61.128906 -139.59375 60.453125 -138.65625 C 59.765625 -137.71875 58.71875 -136.078125 57.3125 -133.734375 C 55.90625 -131.390625 54.347656 -128.660156 52.640625 -125.546875 C 50.941406 -122.441406 49.242188 -119.226562 47.546875 -115.90625 C 45.671875 -112.25 44.175781 -109.351562 43.0625 -107.21875 C 41.957031 -105.09375 41.082031 -103.367188 40.4375 -102.046875 C 39.800781 -100.722656 39.25 -99.570312 38.78125 -98.59375 C 38.3125 -97.613281 37.820312 -96.441406 37.3125 -95.078125 C 36.976562 -94.222656 36.597656 -93.304688 36.171875 -92.328125 C 35.742188 -91.347656 35.398438 -90.601562 35.140625 -90.09375 C 34.890625 -89.582031 34.613281 -88.984375 34.3125 -88.296875 C 34.007812 -87.617188 33.773438 -87.066406 33.609375 -86.640625 C 33.097656 -85.535156 32.757812 -84.984375 32.59375 -84.984375 C 32.414062 -84.984375 32.15625 -84.472656 31.8125 -83.453125 C 31.476562 -82.429688 31.351562 -81.832031 31.4375 -81.65625 C 31.601562 -81.488281 31.429688 -81.019531 30.921875 -80.25 C 30.835938 -79.914062 30.707031 -79.617188 30.53125 -79.359375 C 30.363281 -79.109375 30.28125 -78.9375 30.28125 -78.84375 C 30.28125 -78.757812 30.21875 -78.484375 30.09375 -78.015625 C 29.96875 -77.546875 29.691406 -76.972656 29.265625 -76.296875 C 29.097656 -75.953125 28.820312 -75.289062 28.4375 -74.3125 C 28.050781 -73.332031 27.6875 -72.375 27.34375 -71.4375 C 27.007812 -70.5 26.609375 -69.390625 26.140625 -68.109375 C 25.671875 -66.835938 25.265625 -65.734375 24.921875 -64.796875 C 24.234375 -62.742188 23.460938 -60.546875 22.609375 -58.203125 C 21.765625 -55.867188 21.039062 -53.828125 20.4375 -52.078125 C 19.84375 -50.328125 19.503906 -49.238281 19.421875 -48.8125 C 19.253906 -47.96875 19.082031 -47.546875 18.90625 -47.546875 C 18.738281 -47.546875 18.570312 -47.03125 18.40625 -46 C 18.226562 -45.0625 17.945312 -43.910156 17.5625 -42.546875 C 17.1875 -41.191406 16.828125 -40.300781 16.484375 -39.875 C 16.316406 -39.363281 16.234375 -38.894531 16.234375 -38.46875 C 16.234375 -38.125 16.082031 -37.398438 15.78125 -36.296875 C 15.476562 -35.191406 15.15625 -34.125 14.8125 -33.09375 C 14.476562 -32.070312 14.226562 -31.476562 14.0625 -31.3125 C 13.800781 -30.882812 13.710938 -30.5 13.796875 -30.15625 C 13.796875 -29.726562 13.671875 -29.515625 13.421875 -29.515625 C 12.910156 -29.515625 12.910156 -29.429688 13.421875 -29.265625 C 13.585938 -29.179688 13.671875 -28.96875 13.671875 -28.625 C 13.671875 -28.28125 13.457031 -27.6875 13.03125 -26.84375 C 12.863281 -26.238281 12.671875 -25.660156 12.453125 -25.109375 C 12.242188 -24.554688 12.097656 -24.148438 12.015625 -23.890625 C 12.015625 -23.722656 11.945312 -23.296875 11.8125 -22.609375 C 11.6875 -21.929688 11.539062 -21.253906 11.375 -20.578125 C 11.207031 -19.984375 11.035156 -19.066406 10.859375 -17.828125 C 10.691406 -16.585938 10.519531 -15.5 10.34375 -14.5625 C 10.09375 -12.269531 9.835938 -10.78125 9.578125 -10.09375 C 9.242188 -9.582031 9.242188 -9.328125 9.578125 -9.328125 C 9.753906 -9.328125 10.007812 -9.796875 10.34375 -10.734375 C 10.519531 -11.160156 10.710938 -11.671875 10.921875 -12.265625 C 11.140625 -12.859375 11.375 -13.367188 11.625 -13.796875 C 11.800781 -14.222656 11.972656 -14.648438 12.140625 -15.078125 C 12.304688 -15.503906 12.4375 -15.800781 12.53125 -15.96875 C 12.53125 -16.0625 12.804688 -16.851562 13.359375 -18.34375 C 13.910156 -19.832031 14.546875 -21.535156 15.265625 -23.453125 C 15.992188 -25.367188 16.65625 -27.113281 17.25 -28.6875 C 17.84375 -30.257812 18.226562 -31.21875 18.40625 -31.5625 C 18.570312 -31.90625 18.65625 -32.25 18.65625 -32.59375 C 18.738281 -33.019531 18.992188 -33.804688 19.421875 -34.953125 C 19.847656 -36.097656 20.316406 -37.289062 20.828125 -38.53125 C 21.335938 -39.769531 21.828125 -40.832031 22.296875 -41.71875 C 22.765625 -42.613281 23.039062 -43.0625 23.125 -43.0625 C 23.726562 -43.0625 23.6875 -42.335938 23 -40.890625 C 22.144531 -38.847656 21.378906 -36.867188 20.703125 -34.953125 C 20.023438 -33.035156 19.726562 -31.992188 19.8125 -31.828125 C 19.8125 -31.648438 20.023438 -31.988281 20.453125 -32.84375 C 20.617188 -33.269531 20.804688 -33.675781 21.015625 -34.0625 C 21.234375 -34.445312 21.382812 -34.722656 21.46875 -34.890625 C 21.726562 -35.316406 22.132812 -36.164062 22.6875 -37.4375 C 23.238281 -38.71875 24.15625 -40.976562 25.4375 -44.21875 C 26.113281 -45.832031 27.066406 -48.046875 28.296875 -50.859375 C 29.535156 -53.671875 30.835938 -56.398438 32.203125 -59.046875 C 32.710938 -60.066406 33.304688 -61.300781 33.984375 -62.75 C 34.671875 -64.195312 35.226562 -65.472656 35.65625 -66.578125 C 36.164062 -67.859375 36.78125 -69.285156 37.5 -70.859375 C 38.226562 -72.441406 38.929688 -73.867188 39.609375 -75.140625 C 40.296875 -76.421875 40.722656 -77.144531 40.890625 -77.3125 C 41.066406 -77.488281 41.554688 -78.320312 42.359375 -79.8125 C 43.171875 -81.300781 44.085938 -82.960938 45.109375 -84.796875 C 46.128906 -86.628906 47 -88.25 47.71875 -89.65625 C 48.445312 -91.0625 48.8125 -91.765625 48.8125 -91.765625 C 48.726562 -91.765625 48.195312 -90.953125 47.21875 -89.328125 C 46.238281 -87.710938 45.085938 -85.734375 43.765625 -83.390625 C 42.453125 -81.046875 41.238281 -78.828125 40.125 -76.734375 C 39.019531 -74.648438 38.253906 -73.222656 37.828125 -72.453125 C 37.484375 -71.859375 36.863281 -70.5625 35.96875 -68.5625 C 35.082031 -66.5625 34.125 -64.492188 33.09375 -62.359375 C 32.15625 -60.234375 31.320312 -58.398438 30.59375 -56.859375 C 29.875 -55.328125 29.429688 -54.519531 29.265625 -54.4375 C 29.179688 -54.351562 29.070312 -54.140625 28.9375 -53.796875 C 28.8125 -53.460938 28.664062 -53.082031 28.5 -52.65625 C 28.414062 -52.3125 28.203125 -51.734375 27.859375 -50.921875 C 27.515625 -50.117188 27.128906 -49.375 26.703125 -48.6875 C 26.367188 -47.925781 25.988281 -47.140625 25.5625 -46.328125 C 25.132812 -45.515625 24.835938 -44.894531 24.671875 -44.46875 C 24.066406 -43.53125 23.640625 -43.148438 23.390625 -43.328125 C 23.210938 -43.492188 23.53125 -44.535156 24.34375 -46.453125 C 25.15625 -48.367188 26.367188 -50.90625 27.984375 -54.0625 C 28.578125 -55.25 28.875 -55.972656 28.875 -56.234375 C 28.875 -56.484375 29.109375 -57.097656 29.578125 -58.078125 C 30.046875 -59.054688 30.554688 -60.054688 31.109375 -61.078125 C 31.671875 -62.109375 32.035156 -62.707031 32.203125 -62.875 C 32.546875 -63.21875 32.71875 -63.5625 32.71875 -63.90625 C 32.71875 -64.238281 32.84375 -64.535156 33.09375 -64.796875 C 33.1875 -64.960938 33.335938 -65.257812 33.546875 -65.6875 C 33.753906 -66.113281 33.945312 -66.582031 34.125 -67.09375 C 34.550781 -68.195312 35.296875 -69.878906 36.359375 -72.140625 C 37.421875 -74.398438 38.613281 -76.785156 39.9375 -79.296875 C 41.257812 -81.804688 42.472656 -84.019531 43.578125 -85.9375 C 44.679688 -87.851562 45.40625 -88.941406 45.75 -89.203125 C 46.09375 -89.710938 46.265625 -90.050781 46.265625 -90.21875 C 46.265625 -90.394531 46.390625 -90.757812 46.640625 -91.3125 C 46.898438 -91.863281 47.203125 -92.4375 47.546875 -93.03125 C 47.960938 -93.71875 48.273438 -94.335938 48.484375 -94.890625 C 48.703125 -95.441406 48.769531 -95.757812 48.6875 -95.84375 C 48.601562 -96.1875 48.644531 -96.316406 48.8125 -96.234375 C 49.15625 -96.054688 49.582031 -96.4375 50.09375 -97.375 C 50.351562 -97.800781 50.523438 -98.117188 50.609375 -98.328125 C 50.691406 -98.546875 50.648438 -98.613281 50.484375 -98.53125 C 50.140625 -98.363281 50.050781 -98.445312 50.21875 -98.78125 C 50.394531 -99.039062 50.609375 -99.171875 50.859375 -99.171875 C 51.203125 -99.171875 51.289062 -99.253906 51.125 -99.421875 C 50.945312 -99.679688 51.003906 -100.109375 51.296875 -100.703125 C 51.597656 -101.296875 51.878906 -101.507812 52.140625 -101.34375 C 52.304688 -101.175781 52.476562 -101.257812 52.65625 -101.59375 C 52.820312 -101.769531 52.734375 -101.859375 52.390625 -101.859375 C 52.304688 -101.859375 52.328125 -102.046875 52.453125 -102.421875 C 52.585938 -102.804688 52.820312 -103.253906 53.15625 -103.765625 C 53.5 -104.273438 53.925781 -104.976562 54.4375 -105.875 C 54.945312 -106.769531 55.414062 -107.5625 55.84375 -108.25 C 56.695312 -109.695312 58.101562 -111.800781 60.0625 -114.5625 C 62.019531 -117.332031 64.914062 -121.359375 68.75 -126.640625 C 85.625 -149.472656 97.296875 -162.335938 103.765625 -165.234375 C 104.960938 -165.660156 105.75 -165.914062 106.125 -166 C 106.507812 -166.09375 107.128906 -166.050781 107.984375 -165.875 C 108.921875 -165.707031 109.535156 -165.492188 109.828125 -165.234375 C 110.128906 -164.984375 110.28125 -164.5625 110.28125 -163.96875 C 110.28125 -163.625 110.382812 -163.429688 110.59375 -163.390625 C 110.8125 -163.347656 111.265625 -163.328125 111.953125 -163.328125 C 112.804688 -163.328125 113.335938 -163.238281 113.546875 -163.0625 C 113.753906 -162.894531 114.160156 -162.300781 114.765625 -161.28125 C 115.273438 -160.34375 115.59375 -159.597656 115.71875 -159.046875 C 115.84375 -158.492188 115.90625 -157.617188 115.90625 -156.421875 C 115.90625 -154.378906 115.539062 -151.78125 114.8125 -148.625 C 114.09375 -145.476562 112.84375 -140.789062 111.0625 -134.5625 C 110.71875 -133.457031 110.332031 -132.222656 109.90625 -130.859375 C 109.476562 -129.492188 109.179688 -128.429688 109.015625 -127.671875 C 108.753906 -126.816406 108.429688 -125.726562 108.046875 -124.40625 C 107.671875 -123.082031 107.269531 -121.910156 106.84375 -120.890625 C 105.726562 -117.316406 104.894531 -114.613281 104.34375 -112.78125 C 103.789062 -110.945312 103.40625 -109.664062 103.1875 -108.9375 C 102.976562 -108.21875 102.875 -107.734375 102.875 -107.484375 C 102.789062 -107.222656 102.726562 -106.960938 102.6875 -106.703125 C 102.644531 -106.453125 102.582031 -106.285156 102.5 -106.203125 C 102.238281 -105.691406 101.976562 -104.796875 101.71875 -103.515625 C 101.46875 -102.316406 101.019531 -100.609375 100.375 -98.390625 C 99.738281 -96.179688 99.144531 -94.160156 98.59375 -92.328125 C 98.039062 -90.492188 97.679688 -89.453125 97.515625 -89.203125 C 97.335938 -88.773438 97.082031 -88.644531 96.75 -88.8125 C 96.65625 -88.90625 96.566406 -88.882812 96.484375 -88.75 C 96.398438 -88.625 96.359375 -88.476562 96.359375 -88.3125 C 96.359375 -87.882812 96.53125 -87.582031 96.875 -87.40625 C 97.125 -87.15625 97.164062 -86.898438 97 -86.640625 C 96.914062 -86.472656 96.640625 -85.390625 96.171875 -83.390625 C 95.703125 -81.390625 95.125 -79.023438 94.4375 -76.296875 C 93.5 -72.117188 92.796875 -69.09375 92.328125 -67.21875 C 91.859375 -65.34375 91.515625 -64.191406 91.296875 -63.765625 C 91.085938 -63.335938 90.816406 -63.125 90.484375 -63.125 C 90.054688 -63.300781 89.84375 -63.09375 89.84375 -62.5 C 89.84375 -61.894531 90.015625 -61.507812 90.359375 -61.34375 C 90.609375 -61.082031 90.648438 -60.65625 90.484375 -60.0625 C 90.304688 -59.382812 90.816406 -60.066406 92.015625 -62.109375 C 92.441406 -63.046875 92.820312 -63.851562 93.15625 -64.53125 C 93.5 -65.21875 93.671875 -65.601562 93.671875 -65.6875 C 93.671875 -65.945312 93.882812 -66.160156 94.3125 -66.328125 C 94.476562 -66.492188 94.625 -66.660156 94.75 -66.828125 C 94.882812 -67.003906 94.953125 -67.175781 94.953125 -67.34375 C 94.953125 -67.601562 95.351562 -68.476562 96.15625 -69.96875 C 96.96875 -71.457031 97.90625 -73.140625 98.96875 -75.015625 C 100.039062 -76.890625 101.023438 -78.53125 101.921875 -79.9375 C 102.816406 -81.34375 103.390625 -82.085938 103.640625 -82.171875 C 103.984375 -82.335938 104.15625 -82.632812 104.15625 -83.0625 C 104.15625 -83.40625 104.535156 -84.148438 105.296875 -85.296875 C 106.066406 -86.453125 107.066406 -87.816406 108.296875 -89.390625 C 109.535156 -90.972656 110.835938 -92.53125 112.203125 -94.0625 C 113.566406 -95.59375 114.800781 -96.910156 115.90625 -98.015625 C 116.757812 -98.867188 117.695312 -99.550781 118.71875 -100.0625 C 119.738281 -100.570312 120.335938 -100.703125 120.515625 -100.453125 C 120.765625 -100.191406 120.9375 -100.191406 121.03125 -100.453125 C 121.113281 -100.617188 121.835938 -100.617188 123.203125 -100.453125 C 124.140625 -100.273438 124.671875 -100.101562 124.796875 -99.9375 C 124.921875 -99.769531 124.941406 -99.472656 124.859375 -99.046875 L 124.609375 -98.015625 L 126.390625 -98.28125 L 128.3125 -98.53125 L 129.59375 -96.609375 C 130.269531 -95.585938 130.753906 -94.476562 131.046875 -93.28125 C 131.347656 -92.09375 131.5 -90.476562 131.5 -88.4375 C 131.5 -86.394531 131.375 -83.582031 131.125 -80 C 130.78125 -75.226562 130.5 -71.96875 130.28125 -70.21875 C 130.070312 -68.476562 129.84375 -67.519531 129.59375 -67.34375 C 129.164062 -67.175781 129.117188 -66.878906 129.453125 -66.453125 C 129.796875 -65.941406 129.84375 -65.300781 129.59375 -64.53125 C 129.5 -64.195312 129.429688 -63.625 129.390625 -62.8125 C 129.347656 -62 129.285156 -61.210938 129.203125 -60.453125 C 129.203125 -57.046875 128.816406 -55.128906 128.046875 -54.703125 C 127.710938 -54.609375 127.585938 -54.328125 127.671875 -53.859375 C 127.753906 -53.390625 127.96875 -52.988281 128.3125 -52.65625 C 128.5625 -52.394531 128.707031 -51.96875 128.75 -51.375 C 128.789062 -50.78125 128.8125 -49.628906 128.8125 -47.921875 C 128.726562 -46.816406 128.707031 -45.835938 128.75 -44.984375 C 128.789062 -44.128906 128.859375 -43.703125 128.953125 -43.703125 C 129.203125 -43.703125 129.242188 -43.445312 129.078125 -42.9375 C 129.078125 -42.257812 129.117188 -41.878906 129.203125 -41.796875 C 129.367188 -41.703125 130.023438 -41.890625 131.171875 -42.359375 C 132.328125 -42.828125 133.671875 -43.421875 135.203125 -44.140625 C 136.742188 -44.867188 138.21875 -45.617188 139.625 -46.390625 C 141.03125 -47.160156 142.070312 -47.800781 142.75 -48.3125 C 144.03125 -49.25 144.925781 -49.738281 145.4375 -49.78125 C 145.945312 -49.820312 146.5 -49.5 147.09375 -48.8125 C 147.769531 -47.96875 148.109375 -47.457031 148.109375 -47.28125 C 148.109375 -47.03125 147.769531 -46.4375 147.09375 -45.5 C 146.414062 -44.5625 145.648438 -43.625 144.796875 -42.6875 C 143.941406 -41.75 143.257812 -41.066406 142.75 -40.640625 C 141.726562 -40.046875 141.21875 -39.492188 141.21875 -38.984375 C 141.21875 -38.722656 141.085938 -38.59375 140.828125 -38.59375 C 140.742188 -38.59375 140.378906 -38.460938 139.734375 -38.203125 C 139.097656 -37.953125 138.398438 -37.65625 137.640625 -37.3125 C 136.191406 -36.71875 134.847656 -36.332031 133.609375 -36.15625 C 132.378906 -35.988281 131.632812 -36.078125 131.375 -36.421875 C 131.207031 -36.765625 130.992188 -36.847656 130.734375 -36.671875 C 130.566406 -36.585938 129.96875 -36.738281 128.9375 -37.125 C 127.914062 -37.507812 127.023438 -37.914062 126.265625 -38.34375 C 125.492188 -38.9375 125.023438 -39.148438 124.859375 -38.984375 C 124.773438 -38.890625 124.347656 -39.160156 123.578125 -39.796875 C 122.804688 -40.441406 122.082031 -41.125 121.40625 -41.84375 C 120.726562 -42.570312 120.390625 -43.023438 120.390625 -43.203125 C 120.390625 -43.535156 120.257812 -43.703125 120 -43.703125 C 119.75 -43.703125 119.410156 -44.128906 118.984375 -44.984375 C 118.554688 -45.835938 118.34375 -46.5625 118.34375 -47.15625 C 118.34375 -47.832031 118.488281 -48.085938 118.78125 -47.921875 C 119.082031 -47.753906 119.273438 -47.285156 119.359375 -46.515625 C 119.535156 -45.660156 119.707031 -45.234375 119.875 -45.234375 C 120.039062 -45.234375 120.125 -45.703125 120.125 -46.640625 C 120.125 -47.066406 120.144531 -47.894531 120.1875 -49.125 C 120.226562 -50.363281 120.25 -51.664062 120.25 -53.03125 C 120.34375 -54.394531 120.390625 -55.78125 120.390625 -57.1875 C 120.390625 -58.59375 120.390625 -59.632812 120.390625 -60.3125 C 120.390625 -61.425781 120.34375 -62.066406 120.25 -62.234375 C 120.164062 -62.410156 120 -62.328125 119.75 -61.984375 C 119.40625 -61.210938 119.164062 -61.144531 119.03125 -61.78125 C 118.90625 -62.425781 119.015625 -63.8125 119.359375 -65.9375 C 119.535156 -67.132812 119.75 -68.671875 120 -70.546875 C 120.257812 -72.421875 120.429688 -74.164062 120.515625 -75.78125 C 120.679688 -77.40625 120.847656 -78.789062 121.015625 -79.9375 C 121.191406 -81.082031 121.320312 -81.703125 121.40625 -81.796875 C 121.488281 -81.878906 121.550781 -82.429688 121.59375 -83.453125 C 121.632812 -84.472656 121.675781 -85.617188 121.71875 -86.890625 C 121.769531 -88.171875 121.796875 -89.34375 121.796875 -90.40625 C 121.796875 -91.476562 121.75 -92.097656 121.65625 -92.265625 C 121.570312 -92.691406 121.191406 -92.691406 120.515625 -92.265625 C 119.921875 -91.835938 119.625 -91.539062 119.625 -91.375 C 119.625 -91.289062 119.34375 -90.863281 118.78125 -90.09375 C 118.226562 -89.332031 117.523438 -88.484375 116.671875 -87.546875 C 115.910156 -86.515625 115.226562 -85.632812 114.625 -84.90625 C 114.03125 -84.1875 113.734375 -83.785156 113.734375 -83.703125 C 113.734375 -83.617188 113.476562 -83.191406 112.96875 -82.421875 C 112.457031 -81.660156 111.863281 -80.726562 111.1875 -79.625 C 110.164062 -78 108.90625 -75.882812 107.40625 -73.28125 C 105.914062 -70.6875 104.53125 -68.15625 103.25 -65.6875 C 101.976562 -63.21875 101.085938 -61.425781 100.578125 -60.3125 C 100.234375 -59.632812 99.847656 -58.785156 99.421875 -57.765625 C 98.992188 -56.742188 98.566406 -55.890625 98.140625 -55.203125 C 97.804688 -54.441406 97.445312 -53.632812 97.0625 -52.78125 C 96.675781 -51.925781 96.398438 -51.285156 96.234375 -50.859375 C 95.804688 -49.671875 95.421875 -48.988281 95.078125 -48.8125 C 94.648438 -48.5625 94.523438 -48.347656 94.703125 -48.171875 C 94.867188 -48.003906 94.867188 -47.75 94.703125 -47.40625 C 94.609375 -47.15625 94.519531 -47.007812 94.4375 -46.96875 C 94.351562 -46.925781 94.226562 -47.03125 94.0625 -47.28125 C 93.800781 -47.707031 93.671875 -47.582031 93.671875 -46.90625 C 93.671875 -46.21875 93.546875 -45.789062 93.296875 -45.625 C 93.117188 -45.457031 93.070312 -45.113281 93.15625 -44.59375 C 93.414062 -44 93.289062 -43.535156 92.78125 -43.203125 C 92.351562 -42.859375 92.179688 -42.644531 92.265625 -42.5625 C 92.347656 -42.300781 92.003906 -41.210938 91.234375 -39.296875 C 90.472656 -37.378906 89.582031 -35.3125 88.5625 -33.09375 C 87.457031 -30.707031 86.582031 -28.707031 85.9375 -27.09375 C 85.300781 -25.476562 84.898438 -24.070312 84.734375 -22.875 C 84.640625 -22.019531 84.296875 -21.316406 83.703125 -20.765625 C 83.109375 -20.210938 82.515625 -20.019531 81.921875 -20.1875 C 81.578125 -20.363281 81.40625 -20.363281 81.40625 -20.1875 C 81.40625 -19.851562 80.9375 -19.851562 80 -20.1875 C 79.144531 -20.445312 78.71875 -20.703125 78.71875 -20.953125 C 78.71875 -21.128906 78.460938 -21.472656 77.953125 -21.984375 C 77.609375 -22.328125 77.304688 -22.519531 77.046875 -22.5625 C 76.796875 -22.601562 76.757812 -22.492188 76.9375 -22.234375 C 77.101562 -22.066406 77.0625 -21.894531 76.8125 -21.71875 C 76.632812 -21.550781 76.164062 -21.9375 75.40625 -22.875 C 74.632812 -23.8125 73.992188 -24.28125 73.484375 -24.28125 C 72.972656 -24.363281 72.675781 -24.875 72.59375 -25.8125 C 72.59375 -26.40625 72.675781 -27.320312 72.84375 -28.5625 C 73.007812 -29.800781 73.21875 -30.972656 73.46875 -32.078125 C 73.726562 -33.179688 73.945312 -33.773438 74.125 -33.859375 C 74.375 -34.035156 74.476562 -33.738281 74.4375 -32.96875 C 74.394531 -32.207031 74.203125 -30.84375 73.859375 -28.875 C 73.691406 -28.03125 73.566406 -27.265625 73.484375 -26.578125 C 73.398438 -25.898438 73.398438 -25.519531 73.484375 -25.4375 C 73.648438 -25.34375 73.90625 -25.703125 74.25 -26.515625 C 74.59375 -27.328125 74.765625 -27.945312 74.765625 -28.375 C 74.765625 -28.882812 74.976562 -29.566406 75.40625 -30.421875 C 75.570312 -30.929688 75.820312 -31.953125 76.15625 -33.484375 C 76.5 -35.015625 76.796875 -36.503906 77.046875 -37.953125 C 77.304688 -39.398438 77.4375 -40.296875 77.4375 -40.640625 C 77.351562 -41.578125 77.375 -42.34375 77.5 -42.9375 C 77.632812 -43.53125 77.785156 -43.742188 77.953125 -43.578125 C 78.296875 -43.410156 78.335938 -43.796875 78.078125 -44.734375 C 77.910156 -45.753906 77.957031 -46.265625 78.21875 -46.265625 C 78.46875 -46.265625 78.785156 -47.03125 79.171875 -48.5625 C 79.554688 -50.09375 79.894531 -51.835938 80.1875 -53.796875 C 80.488281 -55.753906 80.640625 -57.289062 80.640625 -58.40625 C 80.640625 -59.851562 80.722656 -60.320312 80.890625 -59.8125 C 81.066406 -59.550781 81.238281 -59.613281 81.40625 -60 C 81.570312 -60.382812 81.785156 -61.257812 82.046875 -62.625 C 82.128906 -63.726562 82 -64.28125 81.65625 -64.28125 C 81.40625 -64.28125 81.492188 -64.453125 81.921875 -64.796875 C 82.347656 -65.046875 82.601562 -65.8125 82.6875 -67.09375 C 82.6875 -67.601562 82.726562 -68.070312 82.8125 -68.5 C 82.894531 -68.925781 82.976562 -69.179688 83.0625 -69.265625 C 83.15625 -69.265625 83.242188 -69.457031 83.328125 -69.84375 C 83.410156 -70.226562 83.453125 -70.632812 83.453125 -71.0625 C 83.453125 -72.082031 83.535156 -72.59375 83.703125 -72.59375 C 83.878906 -72.59375 84.03125 -72.953125 84.15625 -73.671875 C 84.28125 -74.398438 84.257812 -74.804688 84.09375 -74.890625 C 83.914062 -74.972656 84 -75.441406 84.34375 -76.296875 C 84.507812 -76.546875 84.65625 -76.925781 84.78125 -77.4375 C 84.914062 -77.957031 85.023438 -78.382812 85.109375 -78.71875 C 85.109375 -80.34375 85.453125 -82.257812 86.140625 -84.46875 C 86.304688 -84.894531 86.492188 -85.597656 86.703125 -86.578125 C 86.921875 -87.554688 87.113281 -88.472656 87.28125 -89.328125 C 87.457031 -91.367188 87.757812 -92.601562 88.1875 -93.03125 C 88.601562 -93.375 88.726562 -93.628906 88.5625 -93.796875 C 88.476562 -94.054688 88.5625 -94.695312 88.8125 -95.71875 C 88.988281 -96.144531 89.160156 -96.675781 89.328125 -97.3125 C 89.492188 -97.957031 89.625 -98.492188 89.71875 -98.921875 C 90.050781 -100.109375 90.6875 -102.273438 91.625 -105.421875 C 92.5625 -108.578125 93.671875 -112.09375 94.953125 -115.96875 C 96.234375 -119.851562 97.425781 -123.457031 98.53125 -126.78125 C 100.238281 -131.800781 101.601562 -136.054688 102.625 -139.546875 C 103.644531 -143.046875 104.070312 -145.175781 103.90625 -145.9375 C 103.726562 -146.625 103.851562 -147.394531 104.28125 -148.25 C 104.539062 -148.84375 104.835938 -149.84375 105.171875 -151.25 C 105.515625 -152.65625 105.8125 -154.039062 106.0625 -155.40625 C 106.320312 -156.769531 106.453125 -157.617188 106.453125 -157.953125 C 106.453125 -158.296875 106.257812 -158.359375 105.875 -158.140625 C 105.488281 -157.929688 104.703125 -157.234375 103.515625 -156.046875 C 100.960938 -153.660156 98.066406 -150.59375 94.828125 -146.84375 C 91.585938 -143.09375 88.242188 -139 84.796875 -134.5625 C 81.347656 -130.132812 77.9375 -125.554688 74.5625 -120.828125 C 71.195312 -116.097656 68.109375 -111.519531 65.296875 -107.09375 C 64.453125 -105.8125 63.539062 -104.40625 62.5625 -102.875 C 61.582031 -101.34375 60.75 -100.109375 60.0625 -99.171875 C 59.46875 -98.316406 58.765625 -97.25 57.953125 -95.96875 C 57.140625 -94.695312 56.523438 -93.59375 56.109375 -92.65625 C 55.597656 -91.800781 55.128906 -91.03125 54.703125 -90.34375 C 54.273438 -89.664062 54.019531 -89.328125 53.9375 -89.328125 C 53.59375 -89.328125 53.566406 -89.941406 53.859375 -91.171875 C 54.160156 -92.410156 54.523438 -93.332031 54.953125 -93.9375 C 55.117188 -94.269531 55.375 -94.710938 55.71875 -95.265625 C 56.0625 -95.828125 56.316406 -96.320312 56.484375 -96.75 C 56.910156 -97.675781 57.570312 -98.84375 58.46875 -100.25 C 59.363281 -101.65625 60.109375 -102.660156 60.703125 -103.265625 C 61.296875 -103.859375 62.0625 -105.003906 63 -106.703125 C 65.050781 -110.203125 66.5 -112.460938 67.34375 -113.484375 C 67.6875 -113.828125 68.003906 -114.253906 68.296875 -114.765625 C 68.597656 -115.273438 68.835938 -115.703125 69.015625 -116.046875 C 69.523438 -117.066406 70.117188 -117.914062 70.796875 -118.59375 C 71.140625 -119.019531 71.820312 -119.867188 72.84375 -121.140625 C 73.863281 -122.421875 74.945312 -123.847656 76.09375 -125.421875 C 77.25 -127.003906 78.226562 -128.367188 79.03125 -129.515625 C 79.84375 -130.671875 80.25 -131.289062 80.25 -131.375 C 80.25 -131.632812 80.632812 -132.234375 81.40625 -133.171875 C 81.832031 -133.585938 82.382812 -134.222656 83.0625 -135.078125 C 83.75 -135.929688 84.390625 -136.785156 84.984375 -137.640625 C 85.660156 -138.492188 86.273438 -139.238281 86.828125 -139.875 C 87.390625 -140.507812 87.710938 -140.867188 87.796875 -140.953125 C 87.878906 -141.128906 88.390625 -141.769531 89.328125 -142.875 C 90.265625 -143.976562 91.375 -145.300781 92.65625 -146.84375 C 93.84375 -148.289062 94.96875 -149.628906 96.03125 -150.859375 C 97.101562 -152.097656 97.765625 -152.84375 98.015625 -153.09375 C 98.273438 -153.351562 98.875 -153.953125 99.8125 -154.890625 C 100.75 -155.828125 101.726562 -156.847656 102.75 -157.953125 C 104.96875 -160.171875 105.773438 -161.148438 105.171875 -160.890625 C 104.578125 -160.640625 102.875 -159.191406 100.0625 -156.546875 C 97.332031 -153.992188 94.15625 -150.585938 90.53125 -146.328125 C 86.914062 -142.066406 83.101562 -137.296875 79.09375 -132.015625 C 75.09375 -126.734375 71.066406 -121.171875 67.015625 -115.328125 C 62.972656 -109.492188 59.164062 -103.679688 55.59375 -97.890625 C 54.3125 -95.765625 52.773438 -93.144531 50.984375 -90.03125 C 49.203125 -86.925781 47.539062 -83.898438 46 -80.953125 C 44.46875 -78.015625 43.320312 -75.738281 42.5625 -74.125 C 42.21875 -73.351562 41.832031 -72.5625 41.40625 -71.75 C 40.976562 -70.945312 40.679688 -70.414062 40.515625 -70.15625 C 40.003906 -69.5625 39.75 -68.96875 39.75 -68.375 C 39.75 -67.945312 39.148438 -66.753906 37.953125 -64.796875 C 37.523438 -63.941406 37.117188 -63.191406 36.734375 -62.546875 C 36.359375 -61.910156 36.171875 -61.507812 36.171875 -61.34375 C 36.171875 -60.914062 35.957031 -60.363281 35.53125 -59.6875 C 35.351562 -59.34375 35.09375 -58.785156 34.75 -58.015625 C 34.414062 -57.253906 34.078125 -56.445312 33.734375 -55.59375 C 33.398438 -54.738281 32.972656 -53.734375 32.453125 -52.578125 C 31.941406 -51.429688 31.429688 -50.390625 30.921875 -49.453125 C 29.898438 -47.578125 29.367188 -46.46875 29.328125 -46.125 C 29.285156 -45.789062 29.773438 -46.429688 30.796875 -48.046875 C 31.222656 -48.734375 31.628906 -49.414062 32.015625 -50.09375 C 32.398438 -50.78125 32.675781 -51.289062 32.84375 -51.625 C 33.007812 -51.882812 33.285156 -52.460938 33.671875 -53.359375 C 34.054688 -54.253906 34.421875 -55.171875 34.765625 -56.109375 C 35.097656 -57.046875 35.476562 -57.976562 35.90625 -58.90625 C 36.332031 -59.84375 36.675781 -60.441406 36.9375 -60.703125 C 37.101562 -61.128906 37.289062 -61.507812 37.5 -61.84375 C 37.71875 -62.1875 37.867188 -62.445312 37.953125 -62.625 C 38.210938 -63.050781 38.425781 -63.132812 38.59375 -62.875 C 38.757812 -62.625 39.398438 -63.691406 40.515625 -66.078125 C 41.023438 -67.097656 41.492188 -67.96875 41.921875 -68.6875 C 42.347656 -69.414062 42.601562 -69.78125 42.6875 -69.78125 C 43.113281 -69.945312 43.238281 -69.753906 43.0625 -69.203125 C 42.894531 -68.648438 42.34375 -67.394531 41.40625 -65.4375 C 40.125 -62.957031 39.226562 -61.632812 38.71875 -61.46875 C 38.382812 -61.382812 38.21875 -61.320312 38.21875 -61.28125 C 38.21875 -61.238281 38.34375 -61.21875 38.59375 -61.21875 C 38.9375 -61.21875 39.109375 -61.148438 39.109375 -61.015625 C 39.109375 -60.890625 39.019531 -60.613281 38.84375 -60.1875 C 37.90625 -58.40625 37.269531 -57.679688 36.9375 -58.015625 C 36.757812 -58.273438 36.628906 -58.234375 36.546875 -57.890625 C 36.460938 -57.640625 36.503906 -57.425781 36.671875 -57.25 C 37.015625 -57.164062 36.890625 -56.316406 36.296875 -54.703125 C 36.035156 -54.015625 35.5625 -52.835938 34.875 -51.171875 C 34.195312 -49.515625 33.519531 -47.898438 32.84375 -46.328125 C 32.164062 -44.753906 31.65625 -43.625 31.3125 -42.9375 C 31.226562 -42.769531 31.015625 -42.257812 30.671875 -41.40625 C 30.328125 -40.550781 29.988281 -39.65625 29.65625 -38.71875 C 29.3125 -37.78125 28.96875 -36.882812 28.625 -36.03125 C 28.28125 -35.1875 28.023438 -34.675781 27.859375 -34.5 C 27.515625 -33.820312 27.34375 -33.351562 27.34375 -33.09375 C 27.34375 -32.664062 27.128906 -32.113281 26.703125 -31.4375 C 26.367188 -30.757812 26.203125 -30.25 26.203125 -29.90625 C 26.203125 -29.738281 26.070312 -29.207031 25.8125 -28.3125 C 25.5625 -27.414062 25.242188 -26.453125 24.859375 -25.421875 C 24.472656 -24.398438 24.148438 -23.59375 23.890625 -23 C 23.804688 -22.832031 23.65625 -22.425781 23.4375 -21.78125 C 23.226562 -21.144531 23 -20.488281 22.75 -19.8125 C 22.488281 -19.039062 22.25 -18.332031 22.03125 -17.6875 C 21.820312 -17.050781 21.675781 -16.648438 21.59375 -16.484375 C 21.507812 -16.316406 21.296875 -15.613281 20.953125 -14.375 C 20.617188 -13.144531 20.238281 -11.800781 19.8125 -10.34375 C 19.46875 -8.894531 19.101562 -7.507812 18.71875 -6.1875 C 18.332031 -4.875 18.054688 -4.046875 17.890625 -3.703125 C 17.546875 -2.765625 17.289062 -1.785156 17.125 -0.765625 C 17.039062 0.0859375 16.910156 0.640625 16.734375 0.890625 C 16.566406 1.148438 16.1875 1.363281 15.59375 1.53125 C 15.25 1.613281 14.800781 1.695312 14.25 1.78125 C 13.695312 1.875 13.25 1.921875 12.90625 1.921875 C 11.96875 1.921875 11.5 2.085938 11.5 2.421875 C 11.5 2.679688 11.304688 2.8125 10.921875 2.8125 C 10.535156 2.8125 9.75 2.726562 8.5625 2.5625 C 7.457031 2.382812 6.113281 1.890625 4.53125 1.078125 C 2.957031 0.273438 2.085938 -0.335938 1.921875 -0.765625 C 1.921875 -1.109375 1.617188 -1.28125 1.015625 -1.28125 Z M 120.640625 -63.125 C 120.804688 -63.46875 120.765625 -63.726562 120.515625 -63.90625 C 120.515625 -63.988281 120.492188 -63.960938 120.453125 -63.828125 C 120.410156 -63.703125 120.390625 -63.554688 120.390625 -63.390625 C 120.390625 -62.878906 120.472656 -62.789062 120.640625 -63.125 Z M 122.171875 -54.0625 C 122.003906 -53.039062 121.921875 -51.71875 121.921875 -50.09375 L 122.046875 -47.40625 L 122.296875 -49.328125 C 122.378906 -49.835938 122.441406 -50.472656 122.484375 -51.234375 C 122.535156 -52.003906 122.5625 -52.691406 122.5625 -53.296875 C 122.5625 -54.316406 122.535156 -54.867188 122.484375 -54.953125 C 122.441406 -55.035156 122.335938 -54.738281 122.171875 -54.0625 Z M 87.796875 -82.8125 C 87.535156 -82.132812 87.578125 -82.050781 87.921875 -82.5625 C 88.097656 -82.894531 88.207031 -83.019531 88.25 -82.9375 C 88.289062 -82.851562 88.269531 -82.554688 88.1875 -82.046875 C 88.09375 -81.453125 88.046875 -81.128906 88.046875 -81.078125 C 88.046875 -81.035156 88.21875 -81.226562 88.5625 -81.65625 C 88.90625 -82.34375 89.078125 -82.984375 89.078125 -83.578125 C 89.078125 -84.253906 89.265625 -85.210938 89.640625 -86.453125 C 90.023438 -87.691406 90.347656 -88.476562 90.609375 -88.8125 C 90.859375 -89.15625 91.15625 -89.921875 91.5 -91.109375 C 91.84375 -92.304688 92.097656 -93.414062 92.265625 -94.4375 C 92.441406 -95.457031 92.398438 -95.882812 92.140625 -95.71875 C 91.890625 -95.71875 91.765625 -95.546875 91.765625 -95.203125 C 91.765625 -94.867188 91.550781 -94.570312 91.125 -94.3125 C 90.613281 -93.96875 90.523438 -93.882812 90.859375 -94.0625 C 91.367188 -94.226562 91.539062 -93.734375 91.375 -92.578125 C 91.207031 -91.429688 90.78125 -90.265625 90.09375 -89.078125 C 89.84375 -88.648438 89.585938 -88.519531 89.328125 -88.6875 C 89.242188 -88.863281 89.179688 -88.90625 89.140625 -88.8125 C 89.097656 -88.726562 89.117188 -88.472656 89.203125 -88.046875 C 89.367188 -87.285156 89.285156 -86.90625 88.953125 -86.90625 C 88.609375 -86.90625 88.351562 -86.394531 88.1875 -85.375 C 88.09375 -84.945312 88.023438 -84.476562 87.984375 -83.96875 C 87.941406 -83.457031 87.878906 -83.070312 87.796875 -82.8125 Z M 90.859375 -74.375 C 91.035156 -74.632812 91.035156 -74.847656 90.859375 -75.015625 C 90.773438 -75.097656 90.710938 -75.078125 90.671875 -74.953125 C 90.628906 -74.828125 90.648438 -74.675781 90.734375 -74.5 C 90.734375 -74.164062 90.773438 -74.125 90.859375 -74.375 Z M 84.59375 -69.78125 L 84.46875 -67.984375 L 85.234375 -70.15625 C 85.410156 -70.84375 85.582031 -71.484375 85.75 -72.078125 C 85.914062 -72.671875 86 -73.054688 86 -73.234375 C 86 -73.648438 86.191406 -74.03125 86.578125 -74.375 C 86.960938 -74.71875 87.195312 -74.71875 87.28125 -74.375 C 87.457031 -74.03125 87.800781 -74.390625 88.3125 -75.453125 C 88.820312 -76.523438 89.117188 -77.488281 89.203125 -78.34375 C 89.367188 -79.019531 89.429688 -79.378906 89.390625 -79.421875 C 89.347656 -79.460938 89.242188 -79.226562 89.078125 -78.71875 L 88.5625 -77.703125 L 88.046875 -78.84375 C 87.960938 -79.269531 87.859375 -79.523438 87.734375 -79.609375 C 87.609375 -79.703125 87.546875 -79.660156 87.546875 -79.484375 C 87.546875 -78.804688 87.457031 -78.722656 87.28125 -79.234375 C 87.03125 -79.492188 86.773438 -79.15625 86.515625 -78.21875 C 86.003906 -76.34375 85.578125 -74.65625 85.234375 -73.15625 C 84.898438 -71.664062 84.6875 -70.539062 84.59375 -69.78125 Z M 86.265625 -58.65625 C 86.429688 -58.914062 86.429688 -59.128906 86.265625 -59.296875 C 86.085938 -59.460938 86 -59.335938 86 -58.921875 C 86 -58.398438 86.085938 -58.3125 86.265625 -58.65625 Z M 84.34375 -67.484375 C 84.175781 -67.816406 84.09375 -67.6875 84.09375 -67.09375 C 84.09375 -66.5 84.175781 -66.367188 84.34375 -66.703125 C 84.601562 -66.960938 84.601562 -67.222656 84.34375 -67.484375 Z M 83.203125 -61.46875 C 83.023438 -61.632812 82.9375 -61.460938 82.9375 -60.953125 C 82.9375 -60.441406 83.023438 -60.359375 83.203125 -60.703125 C 83.367188 -61.046875 83.367188 -61.300781 83.203125 -61.46875 Z M 82.046875 -55.46875 C 81.878906 -55.632812 81.796875 -55.503906 81.796875 -55.078125 C 81.796875 -54.566406 81.878906 -54.484375 82.046875 -54.828125 C 82.210938 -55.078125 82.210938 -55.289062 82.046875 -55.46875 Z M 77.1875 -31.3125 C 77.1875 -30.96875 77.359375 -31.050781 77.703125 -31.5625 C 78.046875 -32.070312 78.21875 -32.5 78.21875 -32.84375 C 78.21875 -33.101562 78.046875 -32.972656 77.703125 -32.453125 C 77.617188 -32.285156 77.488281 -32.09375 77.3125 -31.875 C 77.144531 -31.664062 77.101562 -31.476562 77.1875 -31.3125 Z M 82.171875 -47.40625 C 82.429688 -47.832031 82.726562 -48.707031 83.0625 -50.03125 C 83.40625 -51.351562 83.75 -52.953125 84.09375 -54.828125 C 84.425781 -56.523438 84.742188 -58.117188 85.046875 -59.609375 C 85.347656 -61.109375 85.539062 -62.023438 85.625 -62.359375 C 85.789062 -62.785156 85.875 -63.148438 85.875 -63.453125 C 85.875 -63.753906 85.832031 -63.90625 85.75 -63.90625 C 85.75 -63.988281 85.726562 -64.007812 85.6875 -63.96875 C 85.644531 -63.925781 85.625 -63.816406 85.625 -63.640625 C 85.625 -63.472656 85.367188 -63.132812 84.859375 -62.625 C 84.265625 -62.195312 83.921875 -61.21875 83.828125 -59.6875 C 83.660156 -58.40625 83.492188 -57.550781 83.328125 -57.125 C 82.984375 -56.78125 82.8125 -55.925781 82.8125 -54.5625 C 82.726562 -53.457031 82.578125 -52.773438 82.359375 -52.515625 C 82.148438 -52.265625 81.960938 -52.566406 81.796875 -53.421875 L 81.53125 -54.4375 L 81.28125 -53.296875 C 81.195312 -53.035156 80.984375 -51.988281 80.640625 -50.15625 C 80.296875 -48.320312 79.910156 -46.257812 79.484375 -43.96875 C 79.054688 -41.664062 78.671875 -39.597656 78.328125 -37.765625 C 77.992188 -35.929688 77.785156 -34.890625 77.703125 -34.640625 C 77.523438 -33.953125 77.609375 -33.691406 77.953125 -33.859375 C 78.210938 -34.117188 78.34375 -34.421875 78.34375 -34.765625 C 78.34375 -35.273438 78.46875 -35.53125 78.71875 -35.53125 C 78.976562 -35.78125 79.019531 -35.523438 78.84375 -34.765625 C 78.675781 -33.910156 78.675781 -33.566406 78.84375 -33.734375 C 79.019531 -33.910156 79.320312 -34.550781 79.75 -35.65625 C 80.175781 -36.675781 80.453125 -37.503906 80.578125 -38.140625 C 80.703125 -38.785156 80.722656 -39.535156 80.640625 -40.390625 C 80.640625 -41.066406 80.570312 -41.316406 80.4375 -41.140625 C 80.3125 -40.972656 80.164062 -40.460938 80 -39.609375 C 79.914062 -38.078125 79.660156 -37.523438 79.234375 -37.953125 C 79.148438 -38.128906 79.148438 -38.578125 79.234375 -39.296875 C 79.316406 -40.023438 79.441406 -40.75 79.609375 -41.46875 C 79.785156 -42.195312 79.957031 -42.515625 80.125 -42.421875 C 80.382812 -42.421875 80.640625 -43.019531 80.890625 -44.21875 C 81.066406 -44.726562 81.28125 -45.300781 81.53125 -45.9375 C 81.789062 -46.582031 82.003906 -47.070312 82.171875 -47.40625 Z M 85.5 -54.828125 C 85.664062 -55.078125 85.664062 -55.289062 85.5 -55.46875 C 85.320312 -55.632812 85.234375 -55.503906 85.234375 -55.078125 C 85.234375 -54.566406 85.320312 -54.484375 85.5 -54.828125 Z M 84.09375 -46.515625 C 84.34375 -47.617188 84.53125 -48.554688 84.65625 -49.328125 C 84.789062 -50.097656 84.769531 -50.394531 84.59375 -50.21875 C 84.507812 -50.132812 84.335938 -49.707031 84.078125 -48.9375 C 83.828125 -48.175781 83.617188 -47.410156 83.453125 -46.640625 C 83.285156 -45.878906 83.203125 -45.457031 83.203125 -45.375 C 83.367188 -45.195312 83.515625 -45.171875 83.640625 -45.296875 C 83.765625 -45.429688 83.914062 -45.835938 84.09375 -46.515625 Z M 85.625 -53.15625 C 86.132812 -53.675781 86.390625 -54.019531 86.390625 -54.1875 C 86.390625 -54.53125 86.132812 -54.53125 85.625 -54.1875 C 85.113281 -54.019531 84.859375 -53.632812 84.859375 -53.03125 L 84.859375 -52.265625 Z M 89.71875 -69.265625 C 89.800781 -69.941406 89.773438 -70.257812 89.640625 -70.21875 C 89.515625 -70.175781 89.238281 -69.644531 88.8125 -68.625 C 88.726562 -68.28125 88.664062 -68.109375 88.625 -68.109375 C 88.582031 -68.109375 88.519531 -68.28125 88.4375 -68.625 C 88.351562 -68.789062 88.375 -69.148438 88.5 -69.703125 C 88.625 -70.265625 88.773438 -70.84375 88.953125 -71.4375 C 89.117188 -72.113281 89.242188 -72.726562 89.328125 -73.28125 C 89.410156 -73.84375 89.410156 -74.164062 89.328125 -74.25 C 89.242188 -74.675781 88.988281 -74.015625 88.5625 -72.265625 C 88.132812 -70.523438 87.75 -68.546875 87.40625 -66.328125 C 87.238281 -65.390625 87.066406 -64.453125 86.890625 -63.515625 C 86.722656 -62.578125 86.597656 -61.894531 86.515625 -61.46875 C 86.515625 -60.789062 86.554688 -60.535156 86.640625 -60.703125 C 86.898438 -60.960938 87.113281 -61.09375 87.28125 -61.09375 C 87.625 -61.09375 87.796875 -61.390625 87.796875 -61.984375 C 87.878906 -62.492188 87.898438 -62.769531 87.859375 -62.8125 C 87.816406 -62.851562 87.710938 -62.660156 87.546875 -62.234375 L 87.28125 -61.34375 L 87.15625 -62.109375 C 87.15625 -62.703125 87.410156 -63.039062 87.921875 -63.125 C 88.429688 -63.300781 88.6875 -63.515625 88.6875 -63.765625 C 88.769531 -64.191406 88.851562 -64.640625 88.9375 -65.109375 C 89.03125 -65.578125 89.117188 -66.066406 89.203125 -66.578125 C 89.285156 -66.921875 89.367188 -67.347656 89.453125 -67.859375 C 89.535156 -68.367188 89.625 -68.835938 89.71875 -69.265625 Z M 97 -63.515625 C 96.738281 -63.171875 96.3125 -62.421875 95.71875 -61.265625 C 95.125 -60.117188 94.484375 -58.84375 93.796875 -57.4375 C 93.117188 -56.039062 92.546875 -54.804688 92.078125 -53.734375 C 91.609375 -52.671875 91.375 -52.054688 91.375 -51.890625 C 91.375 -51.796875 91.519531 -51.984375 91.8125 -52.453125 C 92.113281 -52.921875 92.4375 -53.5 92.78125 -54.1875 C 93.207031 -54.863281 93.632812 -55.648438 94.0625 -56.546875 C 94.488281 -57.441406 94.785156 -58.101562 94.953125 -58.53125 L 95.96875 -60.3125 L 95.71875 -58.40625 C 95.632812 -57.550781 95.613281 -57.035156 95.65625 -56.859375 C 95.695312 -56.691406 95.890625 -56.738281 96.234375 -57 C 96.578125 -57.507812 96.75 -57.9375 96.75 -58.28125 C 96.75 -58.707031 97.085938 -59.257812 97.765625 -59.9375 C 98.535156 -60.613281 98.875 -61.335938 98.78125 -62.109375 C 98.78125 -62.453125 98.867188 -62.625 99.046875 -62.625 C 99.296875 -62.625 99.421875 -62.75 99.421875 -63 C 99.421875 -63.257812 99.738281 -64.003906 100.375 -65.234375 C 101.019531 -66.472656 101.722656 -67.6875 102.484375 -68.875 C 103.253906 -70.070312 103.726562 -70.710938 103.90625 -70.796875 C 104.070312 -70.878906 104.367188 -71.257812 104.796875 -71.9375 C 105.222656 -72.625 105.648438 -73.394531 106.078125 -74.25 C 106.492188 -75.101562 107 -76 107.59375 -76.9375 C 108.195312 -77.875 108.671875 -78.554688 109.015625 -78.984375 C 109.347656 -79.410156 109.640625 -79.832031 109.890625 -80.25 C 110.148438 -80.675781 110.28125 -80.929688 110.28125 -81.015625 C 110.28125 -81.273438 110.617188 -81.914062 111.296875 -82.9375 C 111.984375 -83.957031 112.816406 -85.128906 113.796875 -86.453125 C 114.773438 -87.773438 115.773438 -89.070312 116.796875 -90.34375 C 117.828125 -91.625 118.679688 -92.648438 119.359375 -93.421875 C 119.953125 -94.015625 120.460938 -94.523438 120.890625 -94.953125 C 121.316406 -95.378906 121.53125 -95.632812 121.53125 -95.71875 C 121.53125 -96.144531 121.039062 -95.992188 120.0625 -95.265625 C 119.082031 -94.546875 117.953125 -93.503906 116.671875 -92.140625 C 115.398438 -90.773438 114.207031 -89.410156 113.09375 -88.046875 C 112.5 -87.203125 111.988281 -86.546875 111.5625 -86.078125 C 111.132812 -85.609375 110.878906 -85.414062 110.796875 -85.5 C 110.710938 -85.664062 111.117188 -86.34375 112.015625 -87.53125 C 112.910156 -88.726562 113.992188 -90.050781 115.265625 -91.5 C 116.546875 -92.945312 117.613281 -94.054688 118.46875 -94.828125 C 119.144531 -95.421875 119.695312 -95.953125 120.125 -96.421875 C 120.550781 -96.890625 120.722656 -97.164062 120.640625 -97.25 C 120.472656 -97.425781 119.941406 -97.128906 119.046875 -96.359375 C 118.148438 -95.585938 117.164062 -94.648438 116.09375 -93.546875 C 115.03125 -92.441406 114.203125 -91.460938 113.609375 -90.609375 C 113.097656 -90.015625 112.628906 -89.460938 112.203125 -88.953125 C 111.773438 -88.441406 111.476562 -88.140625 111.3125 -88.046875 C 111.050781 -87.960938 110.472656 -87.363281 109.578125 -86.25 C 108.691406 -85.144531 107.734375 -83.847656 106.703125 -82.359375 C 105.679688 -80.867188 104.804688 -79.503906 104.078125 -78.265625 C 103.359375 -77.035156 103 -76.25 103 -75.90625 C 103 -75.738281 102.765625 -75.144531 102.296875 -74.125 C 101.828125 -73.101562 101.335938 -72.125 100.828125 -71.1875 C 100.578125 -70.582031 100.492188 -70.238281 100.578125 -70.15625 C 100.578125 -70.070312 100.363281 -69.734375 99.9375 -69.140625 C 99.507812 -68.796875 99 -68.066406 98.40625 -66.953125 C 97.8125 -65.847656 97.597656 -65.210938 97.765625 -65.046875 C 97.847656 -65.046875 97.800781 -64.894531 97.625 -64.59375 C 97.457031 -64.300781 97.25 -63.941406 97 -63.515625 Z M 90.21875 -58.015625 C 89.96875 -58.015625 89.84375 -57.847656 89.84375 -57.515625 C 89.84375 -57.421875 89.882812 -57.3125 89.96875 -57.1875 C 90.050781 -57.0625 90.132812 -57.039062 90.21875 -57.125 C 90.476562 -57.289062 90.609375 -57.503906 90.609375 -57.765625 C 90.609375 -57.929688 90.476562 -58.015625 90.21875 -58.015625 Z M 89.84375 -71.5625 C 90.09375 -71.5625 90.21875 -71.734375 90.21875 -72.078125 C 90.21875 -72.421875 90.175781 -72.59375 90.09375 -72.59375 C 89.925781 -72.59375 89.800781 -72.421875 89.71875 -72.078125 C 89.539062 -71.734375 89.582031 -71.5625 89.84375 -71.5625 Z M 90.859375 -67.859375 C 91.203125 -67.859375 91.289062 -67.898438 91.125 -67.984375 C 90.78125 -68.160156 90.523438 -68.160156 90.359375 -67.984375 C 90.265625 -67.898438 90.429688 -67.859375 90.859375 -67.859375 Z M 92.390625 -86.140625 C 92.648438 -86.566406 92.648438 -86.78125 92.390625 -86.78125 C 92.222656 -86.945312 92.140625 -86.816406 92.140625 -86.390625 C 92.222656 -86.046875 92.304688 -85.960938 92.390625 -86.140625 Z M 92.65625 -97 C 92.820312 -97.675781 92.90625 -98.1875 92.90625 -98.53125 C 92.90625 -99.039062 92.820312 -99.125 92.65625 -98.78125 C 92.476562 -98.613281 92.304688 -98.570312 92.140625 -98.65625 C 91.972656 -98.738281 91.867188 -98.546875 91.828125 -98.078125 C 91.785156 -97.609375 91.847656 -97.164062 92.015625 -96.75 C 92.265625 -96.320312 92.476562 -96.40625 92.65625 -97 Z M 93.15625 -88.953125 C 93.332031 -89.203125 93.332031 -89.410156 93.15625 -89.578125 C 92.90625 -89.835938 92.863281 -89.710938 93.03125 -89.203125 C 93.03125 -88.859375 93.070312 -88.773438 93.15625 -88.953125 Z M 93.671875 -86.390625 C 93.929688 -86.816406 94.0625 -87.242188 94.0625 -87.671875 C 94.0625 -88.015625 93.929688 -87.925781 93.671875 -87.40625 C 93.503906 -86.894531 93.421875 -86.515625 93.421875 -86.265625 C 93.421875 -85.835938 93.503906 -85.878906 93.671875 -86.390625 Z M 93.671875 -100.328125 C 93.929688 -100.492188 94.0625 -100.875 94.0625 -101.46875 C 94.0625 -102.320312 93.890625 -102.195312 93.546875 -101.09375 C 93.460938 -100.488281 93.503906 -100.234375 93.671875 -100.328125 Z M 93.671875 -103.640625 C 93.929688 -103.898438 94.0625 -104.285156 94.0625 -104.796875 C 94.0625 -105.472656 93.890625 -105.257812 93.546875 -104.15625 C 93.460938 -103.5625 93.503906 -103.390625 93.671875 -103.640625 Z M 94.3125 -102.875 C 94.476562 -103.132812 94.476562 -103.347656 94.3125 -103.515625 C 94.226562 -103.597656 94.1875 -103.46875 94.1875 -103.125 C 94.1875 -102.789062 94.226562 -102.707031 94.3125 -102.875 Z M 95.078125 -107.21875 C 95.421875 -107.21875 95.59375 -107.347656 95.59375 -107.609375 C 95.59375 -107.859375 95.507812 -108.15625 95.34375 -108.5 C 95.082031 -108.757812 94.910156 -108.628906 94.828125 -108.109375 C 94.742188 -107.515625 94.828125 -107.21875 95.078125 -107.21875 Z M 98.140625 -115.015625 C 98.316406 -115.523438 98.316406 -115.867188 98.140625 -116.046875 C 98.054688 -116.128906 98.015625 -116.039062 98.015625 -115.78125 C 98.015625 -115.695312 97.972656 -115.632812 97.890625 -115.59375 C 97.804688 -115.550781 97.722656 -115.570312 97.640625 -115.65625 C 97.460938 -115.738281 97.269531 -115.648438 97.0625 -115.390625 C 96.851562 -115.140625 96.75 -114.800781 96.75 -114.375 C 96.75 -114.03125 96.957031 -113.941406 97.375 -114.109375 C 97.800781 -114.285156 98.054688 -114.585938 98.140625 -115.015625 Z M 88.6875 -146.078125 C 87.5 -144.453125 86.90625 -143.640625 86.90625 -143.640625 C 86.988281 -143.640625 87.304688 -143.9375 87.859375 -144.53125 C 88.410156 -145.132812 89.070312 -145.859375 89.84375 -146.703125 C 90.601562 -147.640625 91.238281 -148.40625 91.75 -149 C 92.269531 -149.601562 92.53125 -149.945312 92.53125 -150.03125 C 92.53125 -150.207031 92.296875 -150.035156 91.828125 -149.515625 C 91.359375 -149.003906 90.3125 -147.859375 88.6875 -146.078125 Z M 81.796875 -137.515625 C 81.453125 -137.171875 81.171875 -136.828125 80.953125 -136.484375 C 80.742188 -136.140625 80.679688 -135.96875 80.765625 -135.96875 C 80.847656 -135.96875 81.015625 -136.140625 81.265625 -136.484375 C 81.523438 -136.828125 81.828125 -137.171875 82.171875 -137.515625 C 82.515625 -137.929688 82.769531 -138.3125 82.9375 -138.65625 C 83.113281 -139 83.203125 -139.171875 83.203125 -139.171875 C 83.023438 -139.171875 82.554688 -138.617188 81.796875 -137.515625 Z M 76.8125 -132.78125 C 76.550781 -132.4375 76.421875 -132.242188 76.421875 -132.203125 C 76.421875 -132.160156 76.59375 -132.269531 76.9375 -132.53125 C 77.445312 -133.039062 77.613281 -133.335938 77.4375 -133.421875 C 77.4375 -133.421875 77.375 -133.351562 77.25 -133.21875 C 77.125 -133.09375 76.976562 -132.945312 76.8125 -132.78125 Z M 75.65625 -131.375 C 75.394531 -130.945312 75.265625 -130.734375 75.265625 -130.734375 C 75.359375 -130.734375 75.617188 -130.945312 76.046875 -131.375 C 76.378906 -131.71875 76.460938 -131.890625 76.296875 -131.890625 C 76.035156 -131.890625 75.820312 -131.71875 75.65625 -131.375 Z M 74 -129.078125 C 73.488281 -128.734375 73.234375 -128.4375 73.234375 -128.1875 C 73.234375 -128.09375 73.253906 -128.023438 73.296875 -127.984375 C 73.335938 -127.941406 73.359375 -127.960938 73.359375 -128.046875 C 73.441406 -128.046875 73.65625 -128.300781 74 -128.8125 C 74.332031 -129.15625 74.5 -129.347656 74.5 -129.390625 C 74.5 -129.429688 74.332031 -129.328125 74 -129.078125 Z M 76.046875 -129.96875 C 75.109375 -128.78125 74.144531 -127.484375 73.15625 -126.078125 C 72.175781 -124.671875 71.859375 -124.132812 72.203125 -124.46875 C 72.367188 -124.644531 72.769531 -125.113281 73.40625 -125.875 C 74.050781 -126.644531 74.71875 -127.5 75.40625 -128.4375 C 76.757812 -130.226562 77.519531 -131.332031 77.6875 -131.75 C 77.863281 -132.175781 77.316406 -131.582031 76.046875 -129.96875 Z M 70.15625 -124.34375 C 69.394531 -123.320312 69.054688 -122.8125 69.140625 -122.8125 C 69.304688 -122.8125 69.773438 -123.320312 70.546875 -124.34375 C 71.304688 -125.363281 71.644531 -125.875 71.5625 -125.875 C 71.394531 -125.875 70.925781 -125.363281 70.15625 -124.34375 Z M 61.09375 -111.4375 C 60.75 -110.925781 60.660156 -110.671875 60.828125 -110.671875 C 61.003906 -110.835938 61.175781 -111.003906 61.34375 -111.171875 C 61.507812 -111.347656 61.632812 -111.519531 61.71875 -111.6875 C 61.976562 -112.113281 62.039062 -112.304688 61.90625 -112.265625 C 61.78125 -112.222656 61.507812 -111.945312 61.09375 -111.4375 Z M 59.546875 -109.265625 C 59.378906 -109.015625 59.273438 -108.820312 59.234375 -108.6875 C 59.191406 -108.5625 59.210938 -108.539062 59.296875 -108.625 C 59.640625 -108.800781 59.9375 -109.097656 60.1875 -109.515625 C 60.445312 -110.023438 60.507812 -110.257812 60.375 -110.21875 C 60.25 -110.175781 59.972656 -109.859375 59.546875 -109.265625 Z M 57.25 -105.9375 C 56.738281 -104.914062 56.613281 -104.535156 56.875 -104.796875 C 57.300781 -105.222656 57.769531 -105.945312 58.28125 -106.96875 C 58.875 -107.90625 59.019531 -108.222656 58.71875 -107.921875 C 58.425781 -107.628906 57.9375 -106.96875 57.25 -105.9375 Z M 54.4375 -104.796875 C 54.1875 -104.796875 54.0625 -104.625 54.0625 -104.28125 C 54.0625 -104.03125 54.125 -103.925781 54.25 -103.96875 C 54.375 -104.007812 54.476562 -104.195312 54.5625 -104.53125 C 54.65625 -104.707031 54.675781 -104.816406 54.625 -104.859375 C 54.582031 -104.898438 54.519531 -104.878906 54.4375 -104.796875 Z M 50.359375 -94.5625 C 50.015625 -93.96875 49.710938 -93.414062 49.453125 -92.90625 C 49.203125 -92.394531 49.117188 -92.140625 49.203125 -92.140625 C 49.203125 -92.140625 49.367188 -92.394531 49.703125 -92.90625 C 50.046875 -93.414062 50.390625 -93.96875 50.734375 -94.5625 C 51.585938 -96.1875 51.972656 -97 51.890625 -97 C 51.710938 -97 51.203125 -96.1875 50.359375 -94.5625 Z M 43.578125 -79.359375 C 42.296875 -76.972656 41.207031 -74.882812 40.3125 -73.09375 C 39.425781 -71.3125 38.984375 -70.375 38.984375 -70.28125 C 38.984375 -70.195312 39.492188 -71.050781 40.515625 -72.84375 C 41.535156 -74.632812 42.726562 -76.847656 44.09375 -79.484375 C 45.539062 -82.046875 47.132812 -84.878906 48.875 -87.984375 C 50.625 -91.097656 52.007812 -93.550781 53.03125 -95.34375 C 54.144531 -97.039062 55.359375 -98.972656 56.671875 -101.140625 C 57.992188 -103.316406 59.082031 -105.046875 59.9375 -106.328125 C 60.875 -107.609375 61.8125 -108.972656 62.75 -110.421875 C 63.6875 -111.867188 64.410156 -113.015625 64.921875 -113.859375 C 65.429688 -114.628906 66.113281 -115.628906 66.96875 -116.859375 C 67.820312 -118.097656 68.546875 -119.144531 69.140625 -120 C 70.585938 -122.039062 71.015625 -122.847656 70.421875 -122.421875 C 69.648438 -121.910156 69.132812 -121.273438 68.875 -120.515625 C 68.707031 -120.171875 68.472656 -119.785156 68.171875 -119.359375 C 67.878906 -118.929688 67.601562 -118.59375 67.34375 -118.34375 C 67.09375 -118.082031 66.816406 -117.738281 66.515625 -117.3125 C 66.222656 -116.882812 65.988281 -116.503906 65.8125 -116.171875 C 65.46875 -115.660156 64.742188 -114.550781 63.640625 -112.84375 C 62.535156 -111.132812 60.960938 -108.789062 58.921875 -105.8125 C 58.578125 -105.382812 58.082031 -104.640625 57.4375 -103.578125 C 56.800781 -102.515625 56.1875 -101.515625 55.59375 -100.578125 C 55 -99.554688 54.335938 -98.46875 53.609375 -97.3125 C 52.890625 -96.164062 52.316406 -95.25 51.890625 -94.5625 C 51.378906 -93.71875 50.84375 -92.828125 50.28125 -91.890625 C 49.726562 -90.953125 48.960938 -89.566406 47.984375 -87.734375 C 47.003906 -85.898438 45.535156 -83.109375 43.578125 -79.359375 Z M 38.59375 -69.515625 C 38.34375 -69.265625 38.21875 -68.96875 38.21875 -68.625 C 38.21875 -68.457031 38.34375 -68.539062 38.59375 -68.875 C 38.675781 -69.050781 38.757812 -69.203125 38.84375 -69.328125 C 38.9375 -69.453125 38.984375 -69.5625 38.984375 -69.65625 C 38.984375 -69.820312 38.9375 -69.882812 38.84375 -69.84375 C 38.757812 -69.800781 38.675781 -69.691406 38.59375 -69.515625 Z M 45.75 -135.46875 C 45.320312 -135.039062 45.109375 -134.695312 45.109375 -134.4375 C 45.109375 -134.269531 45.148438 -134.226562 45.234375 -134.3125 C 45.328125 -134.394531 45.539062 -134.738281 45.875 -135.34375 C 46.050781 -135.757812 46.140625 -135.96875 46.140625 -135.96875 C 46.140625 -135.96875 46.007812 -135.800781 45.75 -135.46875 Z M 3.328125 -4.21875 C 3.492188 -4.644531 3.492188 -5.03125 3.328125 -5.375 C 3.234375 -5.625 3.1875 -5.410156 3.1875 -4.734375 C 3.1875 -4.128906 3.234375 -3.957031 3.328125 -4.21875 Z M 9.84375 -8.3125 C 9.664062 -8.476562 9.492188 -8.5625 9.328125 -8.5625 C 9.328125 -8.5625 9.304688 -8.539062 9.265625 -8.5 C 9.222656 -8.457031 9.203125 -8.394531 9.203125 -8.3125 C 9.203125 -8.050781 9.328125 -7.921875 9.578125 -7.921875 C 9.921875 -7.921875 10.007812 -8.050781 9.84375 -8.3125 Z M 9.203125 -19.8125 C 9.453125 -20.320312 9.578125 -20.914062 9.578125 -21.59375 C 9.492188 -21.9375 9.410156 -22.085938 9.328125 -22.046875 C 9.242188 -22.003906 9.03125 -21.6875 8.6875 -21.09375 C 8.175781 -20.15625 7.707031 -19.597656 7.28125 -19.421875 C 6.6875 -19.171875 6.472656 -18.875 6.640625 -18.53125 C 6.722656 -18.445312 6.722656 -17.976562 6.640625 -17.125 C 6.554688 -16.269531 6.429688 -15.332031 6.265625 -14.3125 C 5.921875 -12.269531 5.726562 -10.546875 5.6875 -9.140625 C 5.644531 -7.734375 5.75 -6.09375 6 -4.21875 C 6.175781 -2.9375 6.347656 -2.335938 6.515625 -2.421875 C 6.679688 -2.515625 6.8125 -3.238281 6.90625 -4.59375 C 6.90625 -5.53125 7.03125 -6.128906 7.28125 -6.390625 C 7.457031 -6.554688 7.628906 -7.191406 7.796875 -8.296875 C 7.960938 -9.410156 8.148438 -10.710938 8.359375 -12.203125 C 8.578125 -13.691406 8.6875 -15.035156 8.6875 -16.234375 C 8.6875 -17.929688 8.859375 -19.125 9.203125 -19.8125 Z M 37.578125 -103.265625 C 37.828125 -103.515625 37.867188 -103.726562 37.703125 -103.90625 C 37.523438 -104.070312 37.304688 -104.046875 37.046875 -103.828125 C 36.796875 -103.617188 36.71875 -103.429688 36.8125 -103.265625 C 36.976562 -103.085938 37.234375 -103.085938 37.578125 -103.265625 Z M 37.828125 -105.5625 C 37.566406 -105.476562 37.4375 -105.367188 37.4375 -105.234375 C 37.4375 -105.109375 37.566406 -105.046875 37.828125 -105.046875 C 38.085938 -105.046875 38.21875 -105.175781 38.21875 -105.4375 C 38.21875 -105.519531 38.171875 -105.582031 38.078125 -105.625 C 37.992188 -105.664062 37.910156 -105.644531 37.828125 -105.5625 Z M 38.21875 -101.859375 C 38.300781 -102.023438 38.382812 -102.191406 38.46875 -102.359375 C 38.550781 -102.535156 38.59375 -102.664062 38.59375 -102.75 C 38.59375 -102.914062 38.550781 -102.976562 38.46875 -102.9375 C 38.382812 -102.894531 38.300781 -102.789062 38.21875 -102.625 C 37.957031 -102.363281 37.828125 -102.0625 37.828125 -101.71875 C 37.828125 -101.550781 37.957031 -101.597656 38.21875 -101.859375 Z M 42.8125 -114.640625 C 42.644531 -114.296875 42.472656 -113.972656 42.296875 -113.671875 C 42.128906 -113.378906 42.046875 -113.144531 42.046875 -112.96875 C 42.046875 -112.882812 42.128906 -112.925781 42.296875 -113.09375 C 42.472656 -113.269531 42.644531 -113.523438 42.8125 -113.859375 C 42.976562 -114.285156 43.144531 -114.625 43.3125 -114.875 C 43.488281 -115.132812 43.578125 -115.3125 43.578125 -115.40625 C 43.578125 -115.570312 43.320312 -115.316406 42.8125 -114.640625 Z M 41.28125 -120.515625 C 41.019531 -120.429688 40.890625 -120.257812 40.890625 -120 C 40.890625 -119.40625 41.0625 -119.445312 41.40625 -120.125 C 41.570312 -120.632812 41.53125 -120.765625 41.28125 -120.515625 Z M 39.875 -118.34375 C 39.789062 -118.082031 39.769531 -117.953125 39.8125 -117.953125 C 39.851562 -117.953125 39.957031 -118.039062 40.125 -118.21875 C 40.46875 -118.550781 40.554688 -118.71875 40.390625 -118.71875 C 40.210938 -118.894531 40.039062 -118.769531 39.875 -118.34375 Z M 40.125 -108.890625 C 40.125 -109.222656 40 -109.265625 39.75 -109.015625 C 39.488281 -108.929688 39.359375 -108.820312 39.359375 -108.6875 C 39.359375 -108.5625 39.488281 -108.5 39.75 -108.5 C 40 -108.5 40.125 -108.628906 40.125 -108.890625 Z M 39.609375 -117.3125 C 39.609375 -117.40625 39.3125 -117.003906 38.71875 -116.109375 C 38.125 -115.210938 37.550781 -114.25 37 -113.21875 C 36.445312 -112.195312 36.171875 -111.601562 36.171875 -111.4375 C 36.171875 -111.351562 36.296875 -111.3125 36.546875 -111.3125 C 36.628906 -111.3125 36.796875 -111.523438 37.046875 -111.953125 C 37.304688 -112.378906 37.609375 -112.890625 37.953125 -113.484375 C 38.296875 -114.078125 38.613281 -114.671875 38.90625 -115.265625 C 39.207031 -115.867188 39.398438 -116.253906 39.484375 -116.421875 C 39.660156 -117.015625 39.703125 -117.3125 39.609375 -117.3125 Z M 33.734375 -106.078125 C 33.648438 -105.734375 33.628906 -105.5625 33.671875 -105.5625 C 33.710938 -105.5625 33.90625 -105.773438 34.25 -106.203125 C 34.84375 -106.960938 35.140625 -107.429688 35.140625 -107.609375 C 35.140625 -107.941406 34.945312 -107.875 34.5625 -107.40625 C 34.1875 -106.9375 33.910156 -106.492188 33.734375 -106.078125 Z M 34.640625 -96.359375 C 34.640625 -96.785156 34.613281 -97 34.5625 -97 C 34.519531 -97 34.375 -96.828125 34.125 -96.484375 C 33.863281 -96.140625 33.734375 -95.800781 33.734375 -95.46875 C 33.910156 -95.289062 34.101562 -95.304688 34.3125 -95.515625 C 34.53125 -95.734375 34.640625 -96.015625 34.640625 -96.359375 Z M 30.28125 -98.40625 C 29.945312 -98.40625 29.566406 -98.019531 29.140625 -97.25 C 28.710938 -96.488281 28.5 -95.804688 28.5 -95.203125 C 28.5 -94.867188 28.644531 -94.675781 28.9375 -94.625 C 29.238281 -94.582031 29.519531 -94.734375 29.78125 -95.078125 C 29.945312 -95.421875 29.945312 -95.804688 29.78125 -96.234375 C 29.601562 -96.828125 29.769531 -97.164062 30.28125 -97.25 C 30.625 -97.425781 30.816406 -97.660156 30.859375 -97.953125 C 30.898438 -98.253906 30.707031 -98.40625 30.28125 -98.40625 Z M 27.609375 -93.03125 C 27.515625 -92.519531 27.570312 -92.285156 27.78125 -92.328125 C 28 -92.367188 28.15625 -92.644531 28.25 -93.15625 C 28.414062 -93.675781 28.367188 -93.9375 28.109375 -93.9375 C 27.941406 -93.9375 27.773438 -93.632812 27.609375 -93.03125 Z M 24.921875 -86.78125 C 24.753906 -86.945312 24.671875 -86.816406 24.671875 -86.390625 C 24.671875 -85.878906 24.753906 -85.796875 24.921875 -86.140625 C 25.171875 -86.566406 25.171875 -86.78125 24.921875 -86.78125 Z M 21.59375 -83.0625 C 21.34375 -82.8125 21.21875 -82.515625 21.21875 -82.171875 C 21.21875 -82.085938 21.34375 -82.171875 21.59375 -82.421875 C 21.675781 -82.597656 21.757812 -82.769531 21.84375 -82.9375 C 21.9375 -83.113281 21.984375 -83.242188 21.984375 -83.328125 C 21.984375 -83.410156 21.9375 -83.429688 21.84375 -83.390625 C 21.757812 -83.347656 21.675781 -83.238281 21.59375 -83.0625 Z M 13.546875 -55.59375 C 13.804688 -55.332031 13.765625 -54.691406 13.421875 -53.671875 C 12.992188 -52.222656 13.078125 -51.5 13.671875 -51.5 C 13.929688 -51.5 14.1875 -51.925781 14.4375 -52.78125 C 14.78125 -53.457031 15.1875 -54.4375 15.65625 -55.71875 C 16.125 -57 16.503906 -58.210938 16.796875 -59.359375 C 17.097656 -60.515625 17.207031 -61.132812 17.125 -61.21875 C 17.039062 -61.382812 17.253906 -62.171875 17.765625 -63.578125 C 18.273438 -64.984375 18.785156 -66.195312 19.296875 -67.21875 C 19.722656 -67.988281 20.191406 -69.007812 20.703125 -70.28125 C 21.210938 -71.5625 21.660156 -72.734375 22.046875 -73.796875 C 22.429688 -74.867188 22.582031 -75.488281 22.5 -75.65625 C 22.40625 -75.820312 22.550781 -76.546875 22.9375 -77.828125 C 23.320312 -79.109375 24.195312 -81.492188 25.5625 -84.984375 C 25.988281 -86.179688 26.347656 -87.203125 26.640625 -88.046875 C 26.941406 -88.898438 27.050781 -89.328125 26.96875 -89.328125 C 26.375 -89.328125 26.585938 -89.925781 27.609375 -91.125 L 28.75 -92.265625 L 27.609375 -91.5 C 26.835938 -90.988281 26.21875 -90.222656 25.75 -89.203125 C 25.28125 -88.179688 25.257812 -87.582031 25.6875 -87.40625 C 25.945312 -87.320312 26.050781 -87.21875 26 -87.09375 C 25.957031 -86.96875 25.8125 -86.601562 25.5625 -86 C 25.21875 -85.15625 24.894531 -84.601562 24.59375 -84.34375 C 24.300781 -84.09375 24.238281 -84.265625 24.40625 -84.859375 C 24.582031 -85.285156 24.644531 -85.5 24.59375 -85.5 C 24.550781 -85.5 24.40625 -85.410156 24.15625 -85.234375 C 23.976562 -85.066406 23.632812 -84.453125 23.125 -83.390625 C 22.613281 -82.328125 22.164062 -81.257812 21.78125 -80.1875 C 21.40625 -79.125 21.21875 -78.421875 21.21875 -78.078125 C 21.21875 -77.742188 21.238281 -77.578125 21.28125 -77.578125 C 21.320312 -77.578125 21.425781 -77.660156 21.59375 -77.828125 C 21.9375 -78.253906 22.148438 -78.335938 22.234375 -78.078125 C 22.316406 -77.828125 22.191406 -77.359375 21.859375 -76.671875 C 21.597656 -76.078125 21.359375 -75.691406 21.140625 -75.515625 C 20.929688 -75.347656 20.828125 -75.523438 20.828125 -76.046875 C 20.828125 -76.722656 20.460938 -76.289062 19.734375 -74.75 C 19.015625 -73.21875 18.398438 -71.601562 17.890625 -69.90625 C 17.640625 -68.882812 17.363281 -67.945312 17.0625 -67.09375 C 16.757812 -66.238281 16.566406 -65.726562 16.484375 -65.5625 C 16.398438 -65.382812 16.164062 -64.785156 15.78125 -63.765625 C 15.394531 -62.742188 14.988281 -61.59375 14.5625 -60.3125 C 13.96875 -58.695312 13.609375 -57.523438 13.484375 -56.796875 C 13.359375 -56.078125 13.378906 -55.675781 13.546875 -55.59375 Z M 12.65625 -59.296875 C 12.476562 -58.785156 12.390625 -58.421875 12.390625 -58.203125 C 12.390625 -57.992188 12.476562 -58.0625 12.65625 -58.40625 C 12.90625 -58.65625 13.03125 -58.992188 13.03125 -59.421875 C 13.03125 -59.765625 12.90625 -59.722656 12.65625 -59.296875 Z M 12.78125 -54.4375 C 12.519531 -54.351562 12.328125 -54.015625 12.203125 -53.421875 C 12.078125 -52.828125 12.097656 -52.53125 12.265625 -52.53125 C 12.609375 -52.53125 12.78125 -52.695312 12.78125 -53.03125 C 12.945312 -53.457031 13.03125 -53.816406 13.03125 -54.109375 C 13.03125 -54.410156 12.945312 -54.519531 12.78125 -54.4375 Z M 10.21875 -51.625 C 10.050781 -51.800781 9.96875 -51.675781 9.96875 -51.25 C 9.96875 -50.738281 10.050781 -50.648438 10.21875 -50.984375 C 10.476562 -51.410156 10.476562 -51.625 10.21875 -51.625 Z M 9.84375 -50.21875 C 9.664062 -50.394531 9.578125 -50.269531 9.578125 -49.84375 C 9.578125 -49.332031 9.664062 -49.242188 9.84375 -49.578125 C 10.09375 -50.003906 10.09375 -50.21875 9.84375 -50.21875 Z M 7.15625 -41.28125 C 6.988281 -41.445312 6.90625 -41.273438 6.90625 -40.765625 C 6.90625 -40.597656 6.925781 -40.492188 6.96875 -40.453125 C 7.007812 -40.410156 7.070312 -40.472656 7.15625 -40.640625 C 7.414062 -40.890625 7.414062 -41.101562 7.15625 -41.28125 Z M 2.8125 -11.25 C 2.8125 -9.195312 2.832031 -8 2.875 -7.65625 C 2.914062 -7.320312 2.976562 -7.707031 3.0625 -8.8125 C 3.144531 -9.582031 3.269531 -10.414062 3.4375 -11.3125 C 3.613281 -12.207031 3.742188 -12.867188 3.828125 -13.296875 C 4.003906 -13.804688 4.195312 -14.316406 4.40625 -14.828125 C 4.625 -15.335938 4.773438 -15.765625 4.859375 -16.109375 C 5.023438 -16.359375 5.171875 -16.84375 5.296875 -17.5625 C 5.429688 -18.289062 5.539062 -19.039062 5.625 -19.8125 C 5.707031 -21.34375 5.960938 -22.8125 6.390625 -24.21875 C 6.816406 -25.625 7.203125 -26.328125 7.546875 -26.328125 C 8.054688 -26.328125 8.179688 -25.773438 7.921875 -24.671875 C 7.921875 -24.148438 7.921875 -23.71875 7.921875 -23.375 C 7.921875 -23.039062 7.921875 -22.832031 7.921875 -22.75 C 8.179688 -22.582031 8.648438 -22.664062 9.328125 -23 C 10.003906 -23.34375 10.34375 -23.640625 10.34375 -23.890625 C 10.34375 -24.410156 10.617188 -25.648438 11.171875 -27.609375 C 11.734375 -29.566406 12.441406 -31.820312 13.296875 -34.375 C 13.722656 -35.570312 14.125 -36.785156 14.5 -38.015625 C 14.882812 -39.253906 15.117188 -40.171875 15.203125 -40.765625 C 15.378906 -41.359375 15.59375 -42.015625 15.84375 -42.734375 C 16.101562 -43.460938 16.273438 -44 16.359375 -44.34375 C 16.785156 -45.28125 16.976562 -45.875 16.9375 -46.125 C 16.894531 -46.382812 16.660156 -46.429688 16.234375 -46.265625 C 15.804688 -46.085938 15.675781 -46.171875 15.84375 -46.515625 C 15.925781 -46.859375 16.179688 -47.03125 16.609375 -47.03125 C 16.867188 -47.03125 17.46875 -48.222656 18.40625 -50.609375 C 18.738281 -51.628906 19.054688 -52.539062 19.359375 -53.34375 C 19.660156 -54.15625 19.851562 -54.609375 19.9375 -54.703125 C 20.1875 -54.953125 20.3125 -55.332031 20.3125 -55.84375 C 20.3125 -56.019531 20.566406 -56.914062 21.078125 -58.53125 C 21.597656 -60.144531 22.238281 -62.019531 23 -64.15625 C 24.363281 -67.726562 25.320312 -70.34375 25.875 -72 C 26.425781 -73.664062 26.742188 -74.671875 26.828125 -75.015625 C 26.921875 -75.359375 26.835938 -75.398438 26.578125 -75.140625 C 26.328125 -74.710938 26.132812 -74.601562 26 -74.8125 C 25.875 -75.03125 25.984375 -75.441406 26.328125 -76.046875 C 26.578125 -76.640625 26.875 -76.9375 27.21875 -76.9375 C 27.5625 -76.757812 27.734375 -76.84375 27.734375 -77.1875 C 27.734375 -77.269531 27.816406 -77.566406 27.984375 -78.078125 C 28.066406 -78.421875 28.085938 -78.59375 28.046875 -78.59375 C 28.003906 -78.59375 27.859375 -78.421875 27.609375 -78.078125 C 27.097656 -77.484375 26.816406 -77.359375 26.765625 -77.703125 C 26.722656 -78.046875 26.914062 -78.640625 27.34375 -79.484375 C 27.769531 -80.335938 28.066406 -81.082031 28.234375 -81.71875 C 28.410156 -82.363281 28.367188 -82.6875 28.109375 -82.6875 C 27.859375 -82.6875 27.734375 -82.898438 27.734375 -83.328125 C 27.734375 -83.753906 27.945312 -83.753906 28.375 -83.328125 C 28.707031 -82.816406 28.832031 -82.046875 28.75 -81.015625 L 28.5 -79.484375 L 29.265625 -80.765625 C 29.859375 -81.703125 30.257812 -82.765625 30.46875 -83.953125 C 30.6875 -85.148438 30.625 -85.789062 30.28125 -85.875 C 30.03125 -86.132812 30.03125 -86.265625 30.28125 -86.265625 C 30.625 -86.265625 30.878906 -86.519531 31.046875 -87.03125 C 31.140625 -87.195312 31.375 -87.6875 31.75 -88.5 C 32.132812 -89.3125 32.539062 -90.140625 32.96875 -90.984375 C 34.164062 -93.203125 34.953125 -94.71875 35.328125 -95.53125 C 35.710938 -96.34375 35.820312 -96.789062 35.65625 -96.875 C 35.65625 -96.957031 35.546875 -96.847656 35.328125 -96.546875 C 35.117188 -96.253906 34.929688 -95.851562 34.765625 -95.34375 C 34.503906 -94.914062 34.203125 -94.398438 33.859375 -93.796875 C 33.523438 -93.203125 33.269531 -92.691406 33.09375 -92.265625 L 32.453125 -90.984375 L 32.328125 -92.53125 L 32.328125 -94.0625 L 31.828125 -93.03125 C 31.484375 -92.351562 31.484375 -91.882812 31.828125 -91.625 C 32.242188 -91.289062 32.429688 -91.054688 32.390625 -90.921875 C 32.347656 -90.796875 31.988281 -90.5625 31.3125 -90.21875 C 30.71875 -89.96875 30.269531 -89.648438 29.96875 -89.265625 C 29.664062 -88.878906 29.769531 -88.726562 30.28125 -88.8125 C 30.625 -88.988281 30.796875 -88.988281 30.796875 -88.8125 C 30.796875 -88.644531 30.625 -88.132812 30.28125 -87.28125 C 29.945312 -86.601562 29.628906 -86.15625 29.328125 -85.9375 C 29.023438 -85.726562 28.875 -85.921875 28.875 -86.515625 C 28.875 -86.859375 28.535156 -86.476562 27.859375 -85.375 C 27.265625 -84.257812 27.050781 -83.488281 27.21875 -83.0625 C 27.300781 -82.632812 27.21875 -82.46875 26.96875 -82.5625 C 26.707031 -82.726562 26.578125 -82.597656 26.578125 -82.171875 C 26.578125 -81.828125 26.707031 -81.65625 26.96875 -81.65625 C 27.21875 -81.65625 27.34375 -81.488281 27.34375 -81.15625 C 27.34375 -80.8125 27.21875 -80.640625 26.96875 -80.640625 C 26.707031 -80.640625 26.578125 -80.765625 26.578125 -81.015625 C 26.578125 -81.441406 26.382812 -81.421875 26 -80.953125 C 25.625 -80.484375 25.347656 -79.910156 25.171875 -79.234375 C 25.085938 -78.554688 25.175781 -78.257812 25.4375 -78.34375 C 25.769531 -78.425781 25.722656 -78.335938 25.296875 -78.078125 C 24.703125 -77.648438 24.40625 -77.394531 24.40625 -77.3125 C 24.40625 -77.144531 24.320312 -76.804688 24.15625 -76.296875 C 23.726562 -75.191406 23.472656 -74.46875 23.390625 -74.125 C 23.304688 -73.78125 23.347656 -73.351562 23.515625 -72.84375 C 23.679688 -72.070312 23.9375 -71.773438 24.28125 -71.953125 C 24.707031 -72.035156 24.8125 -71.519531 24.59375 -70.40625 C 24.382812 -69.300781 24.023438 -68.28125 23.515625 -67.34375 C 23.347656 -67.007812 23.175781 -66.628906 23 -66.203125 C 22.832031 -65.773438 22.75 -65.472656 22.75 -65.296875 C 22.75 -64.960938 22.535156 -64.582031 22.109375 -64.15625 C 21.765625 -63.8125 21.59375 -63.640625 21.59375 -63.640625 C 21.59375 -63.640625 21.632812 -63.8125 21.71875 -64.15625 C 22.40625 -66.789062 22.921875 -68.109375 23.265625 -68.109375 C 23.597656 -68.109375 23.382812 -68.410156 22.625 -69.015625 C 21.851562 -69.609375 21.46875 -69.863281 21.46875 -69.78125 C 21.382812 -69.78125 21.171875 -69.3125 20.828125 -68.375 C 20.484375 -67.4375 20.101562 -66.328125 19.6875 -65.046875 C 19.257812 -63.679688 18.8125 -62.359375 18.34375 -61.078125 C 17.875 -59.804688 17.550781 -58.914062 17.375 -58.40625 C 17.207031 -57.894531 17.015625 -57.316406 16.796875 -56.671875 C 16.585938 -56.035156 16.441406 -55.503906 16.359375 -55.078125 C 16.273438 -54.734375 16.164062 -54.285156 16.03125 -53.734375 C 15.90625 -53.179688 15.757812 -52.691406 15.59375 -52.265625 C 15.082031 -51.410156 15.039062 -50.898438 15.46875 -50.734375 C 15.632812 -50.648438 15.675781 -50.179688 15.59375 -49.328125 C 15.507812 -48.472656 15.335938 -47.617188 15.078125 -46.765625 C 14.828125 -45.921875 14.53125 -45.328125 14.1875 -44.984375 C 13.675781 -44.472656 13.421875 -44.046875 13.421875 -43.703125 C 13.421875 -43.273438 13.289062 -43.0625 13.03125 -43.0625 C 12.695312 -43.0625 12.613281 -42.976562 12.78125 -42.8125 C 13.03125 -42.726562 12.945312 -42.472656 12.53125 -42.046875 C 12.269531 -41.785156 12.007812 -41.226562 11.75 -40.375 C 11.5 -39.53125 11.285156 -38.660156 11.109375 -37.765625 C 10.941406 -36.867188 10.898438 -36.25 10.984375 -35.90625 C 11.078125 -35.3125 11.035156 -35.1875 10.859375 -35.53125 C 10.609375 -36.039062 10.394531 -35.953125 10.21875 -35.265625 C 10.050781 -34.585938 10.09375 -34.164062 10.34375 -34 C 10.519531 -33.738281 10.394531 -33.179688 9.96875 -32.328125 C 9.800781 -31.992188 9.628906 -31.59375 9.453125 -31.125 C 9.285156 -30.65625 9.242188 -30.289062 9.328125 -30.03125 C 9.328125 -29.4375 9.175781 -28.796875 8.875 -28.109375 C 8.582031 -27.429688 8.265625 -27.09375 7.921875 -27.09375 C 7.671875 -27.09375 7.566406 -27.625 7.609375 -28.6875 C 7.648438 -29.75 7.816406 -30.984375 8.109375 -32.390625 C 8.410156 -33.796875 8.734375 -34.96875 9.078125 -35.90625 C 9.328125 -36.59375 9.644531 -37.445312 10.03125 -38.46875 C 10.414062 -39.488281 10.734375 -40.335938 10.984375 -41.015625 C 11.242188 -41.703125 11.5 -42.40625 11.75 -43.125 C 12.007812 -43.851562 12.179688 -44.390625 12.265625 -44.734375 C 12.609375 -45.492188 12.609375 -45.875 12.265625 -45.875 C 11.921875 -45.875 12.175781 -47.023438 13.03125 -49.328125 C 13.289062 -50.347656 13.332031 -50.945312 13.15625 -51.125 C 12.988281 -51.289062 12.78125 -50.988281 12.53125 -50.21875 C 12.351562 -49.375 12.050781 -48.820312 11.625 -48.5625 C 11.375 -48.394531 11.25 -48.351562 11.25 -48.4375 C 11.25 -48.519531 11.289062 -48.816406 11.375 -49.328125 C 11.539062 -50.179688 11.539062 -50.523438 11.375 -50.359375 C 11.207031 -50.179688 10.863281 -49.257812 10.34375 -47.59375 C 9.832031 -45.9375 9.238281 -43.894531 8.5625 -41.46875 C 7.882812 -39.039062 7.222656 -36.546875 6.578125 -33.984375 C 5.941406 -31.429688 5.410156 -29.132812 4.984375 -27.09375 C 4.640625 -25.476562 4.425781 -24.242188 4.34375 -23.390625 C 4.257812 -22.535156 4.300781 -22.320312 4.46875 -22.75 C 4.644531 -23.09375 4.835938 -23.265625 5.046875 -23.265625 C 5.265625 -23.265625 5.375 -23.050781 5.375 -22.625 C 5.375 -22.363281 5.113281 -22.148438 4.59375 -21.984375 C 3.570312 -21.722656 2.976562 -18.144531 2.8125 -11.25 Z M 2.8125 -11.25 "/></g></g></g></svg>